G75*
%MOIN*%
%OFA0B0*%
%FSLAX25Y25*%
%IPPOS*%
%LPD*%
%AMOC8*
5,1,8,0,0,1.08239X$1,22.5*
%
%ADD10C,0.00000*%
%ADD11C,0.00400*%
%ADD12C,0.00746*%
%ADD13C,0.00500*%
D10*
X0030649Y0017263D02*
X0030649Y0092177D01*
X0152011Y0092177D01*
X0152011Y0092208D01*
X0152011Y0092177D02*
X0152011Y0017263D01*
X0152011Y0017247D01*
X0152011Y0017263D02*
X0030649Y0017263D01*
X0109471Y0019767D02*
X0109473Y0019836D01*
X0109479Y0019904D01*
X0109489Y0019972D01*
X0109503Y0020039D01*
X0109521Y0020106D01*
X0109542Y0020171D01*
X0109568Y0020235D01*
X0109597Y0020297D01*
X0109629Y0020357D01*
X0109665Y0020416D01*
X0109705Y0020472D01*
X0109747Y0020526D01*
X0109793Y0020577D01*
X0109842Y0020626D01*
X0109893Y0020672D01*
X0109947Y0020714D01*
X0110003Y0020754D01*
X0110061Y0020790D01*
X0110122Y0020822D01*
X0110184Y0020851D01*
X0110248Y0020877D01*
X0110313Y0020898D01*
X0110380Y0020916D01*
X0110447Y0020930D01*
X0110515Y0020940D01*
X0110583Y0020946D01*
X0110652Y0020948D01*
X0110721Y0020946D01*
X0110789Y0020940D01*
X0110857Y0020930D01*
X0110924Y0020916D01*
X0110991Y0020898D01*
X0111056Y0020877D01*
X0111120Y0020851D01*
X0111182Y0020822D01*
X0111242Y0020790D01*
X0111301Y0020754D01*
X0111357Y0020714D01*
X0111411Y0020672D01*
X0111462Y0020626D01*
X0111511Y0020577D01*
X0111557Y0020526D01*
X0111599Y0020472D01*
X0111639Y0020416D01*
X0111675Y0020357D01*
X0111707Y0020297D01*
X0111736Y0020235D01*
X0111762Y0020171D01*
X0111783Y0020106D01*
X0111801Y0020039D01*
X0111815Y0019972D01*
X0111825Y0019904D01*
X0111831Y0019836D01*
X0111833Y0019767D01*
X0111831Y0019698D01*
X0111825Y0019630D01*
X0111815Y0019562D01*
X0111801Y0019495D01*
X0111783Y0019428D01*
X0111762Y0019363D01*
X0111736Y0019299D01*
X0111707Y0019237D01*
X0111675Y0019176D01*
X0111639Y0019118D01*
X0111599Y0019062D01*
X0111557Y0019008D01*
X0111511Y0018957D01*
X0111462Y0018908D01*
X0111411Y0018862D01*
X0111357Y0018820D01*
X0111301Y0018780D01*
X0111243Y0018744D01*
X0111182Y0018712D01*
X0111120Y0018683D01*
X0111056Y0018657D01*
X0110991Y0018636D01*
X0110924Y0018618D01*
X0110857Y0018604D01*
X0110789Y0018594D01*
X0110721Y0018588D01*
X0110652Y0018586D01*
X0110583Y0018588D01*
X0110515Y0018594D01*
X0110447Y0018604D01*
X0110380Y0018618D01*
X0110313Y0018636D01*
X0110248Y0018657D01*
X0110184Y0018683D01*
X0110122Y0018712D01*
X0110061Y0018744D01*
X0110003Y0018780D01*
X0109947Y0018820D01*
X0109893Y0018862D01*
X0109842Y0018908D01*
X0109793Y0018957D01*
X0109747Y0019008D01*
X0109705Y0019062D01*
X0109665Y0019118D01*
X0109629Y0019176D01*
X0109597Y0019237D01*
X0109568Y0019299D01*
X0109542Y0019363D01*
X0109521Y0019428D01*
X0109503Y0019495D01*
X0109489Y0019562D01*
X0109479Y0019630D01*
X0109473Y0019698D01*
X0109471Y0019767D01*
X0123842Y0019767D02*
X0123844Y0019836D01*
X0123850Y0019904D01*
X0123860Y0019972D01*
X0123874Y0020039D01*
X0123892Y0020106D01*
X0123913Y0020171D01*
X0123939Y0020235D01*
X0123968Y0020297D01*
X0124000Y0020357D01*
X0124036Y0020416D01*
X0124076Y0020472D01*
X0124118Y0020526D01*
X0124164Y0020577D01*
X0124213Y0020626D01*
X0124264Y0020672D01*
X0124318Y0020714D01*
X0124374Y0020754D01*
X0124432Y0020790D01*
X0124493Y0020822D01*
X0124555Y0020851D01*
X0124619Y0020877D01*
X0124684Y0020898D01*
X0124751Y0020916D01*
X0124818Y0020930D01*
X0124886Y0020940D01*
X0124954Y0020946D01*
X0125023Y0020948D01*
X0125092Y0020946D01*
X0125160Y0020940D01*
X0125228Y0020930D01*
X0125295Y0020916D01*
X0125362Y0020898D01*
X0125427Y0020877D01*
X0125491Y0020851D01*
X0125553Y0020822D01*
X0125613Y0020790D01*
X0125672Y0020754D01*
X0125728Y0020714D01*
X0125782Y0020672D01*
X0125833Y0020626D01*
X0125882Y0020577D01*
X0125928Y0020526D01*
X0125970Y0020472D01*
X0126010Y0020416D01*
X0126046Y0020357D01*
X0126078Y0020297D01*
X0126107Y0020235D01*
X0126133Y0020171D01*
X0126154Y0020106D01*
X0126172Y0020039D01*
X0126186Y0019972D01*
X0126196Y0019904D01*
X0126202Y0019836D01*
X0126204Y0019767D01*
X0126202Y0019698D01*
X0126196Y0019630D01*
X0126186Y0019562D01*
X0126172Y0019495D01*
X0126154Y0019428D01*
X0126133Y0019363D01*
X0126107Y0019299D01*
X0126078Y0019237D01*
X0126046Y0019176D01*
X0126010Y0019118D01*
X0125970Y0019062D01*
X0125928Y0019008D01*
X0125882Y0018957D01*
X0125833Y0018908D01*
X0125782Y0018862D01*
X0125728Y0018820D01*
X0125672Y0018780D01*
X0125614Y0018744D01*
X0125553Y0018712D01*
X0125491Y0018683D01*
X0125427Y0018657D01*
X0125362Y0018636D01*
X0125295Y0018618D01*
X0125228Y0018604D01*
X0125160Y0018594D01*
X0125092Y0018588D01*
X0125023Y0018586D01*
X0124954Y0018588D01*
X0124886Y0018594D01*
X0124818Y0018604D01*
X0124751Y0018618D01*
X0124684Y0018636D01*
X0124619Y0018657D01*
X0124555Y0018683D01*
X0124493Y0018712D01*
X0124432Y0018744D01*
X0124374Y0018780D01*
X0124318Y0018820D01*
X0124264Y0018862D01*
X0124213Y0018908D01*
X0124164Y0018957D01*
X0124118Y0019008D01*
X0124076Y0019062D01*
X0124036Y0019118D01*
X0124000Y0019176D01*
X0123968Y0019237D01*
X0123939Y0019299D01*
X0123913Y0019363D01*
X0123892Y0019428D01*
X0123874Y0019495D01*
X0123860Y0019562D01*
X0123850Y0019630D01*
X0123844Y0019698D01*
X0123842Y0019767D01*
X0134874Y0077905D02*
X0134876Y0078006D01*
X0134882Y0078107D01*
X0134892Y0078208D01*
X0134906Y0078308D01*
X0134924Y0078407D01*
X0134946Y0078506D01*
X0134971Y0078604D01*
X0135001Y0078701D01*
X0135034Y0078796D01*
X0135071Y0078890D01*
X0135112Y0078983D01*
X0135156Y0079074D01*
X0135204Y0079163D01*
X0135256Y0079250D01*
X0135311Y0079335D01*
X0135369Y0079417D01*
X0135430Y0079498D01*
X0135495Y0079576D01*
X0135562Y0079651D01*
X0135632Y0079723D01*
X0135706Y0079793D01*
X0135782Y0079860D01*
X0135860Y0079924D01*
X0135941Y0079984D01*
X0136024Y0080041D01*
X0136110Y0080095D01*
X0136198Y0080146D01*
X0136287Y0080193D01*
X0136378Y0080237D01*
X0136471Y0080276D01*
X0136566Y0080313D01*
X0136661Y0080345D01*
X0136758Y0080374D01*
X0136857Y0080398D01*
X0136955Y0080419D01*
X0137055Y0080436D01*
X0137155Y0080449D01*
X0137256Y0080458D01*
X0137357Y0080463D01*
X0137458Y0080464D01*
X0137559Y0080461D01*
X0137660Y0080454D01*
X0137761Y0080443D01*
X0137861Y0080428D01*
X0137960Y0080409D01*
X0138059Y0080386D01*
X0138156Y0080360D01*
X0138253Y0080329D01*
X0138348Y0080295D01*
X0138441Y0080257D01*
X0138534Y0080215D01*
X0138624Y0080170D01*
X0138713Y0080121D01*
X0138799Y0080069D01*
X0138883Y0080013D01*
X0138966Y0079954D01*
X0139045Y0079892D01*
X0139123Y0079827D01*
X0139197Y0079759D01*
X0139269Y0079687D01*
X0139338Y0079614D01*
X0139404Y0079537D01*
X0139467Y0079458D01*
X0139527Y0079376D01*
X0139583Y0079292D01*
X0139636Y0079206D01*
X0139686Y0079118D01*
X0139732Y0079028D01*
X0139775Y0078937D01*
X0139814Y0078843D01*
X0139849Y0078748D01*
X0139880Y0078652D01*
X0139908Y0078555D01*
X0139932Y0078457D01*
X0139952Y0078358D01*
X0139968Y0078258D01*
X0139980Y0078157D01*
X0139988Y0078057D01*
X0139992Y0077956D01*
X0139992Y0077854D01*
X0139988Y0077753D01*
X0139980Y0077653D01*
X0139968Y0077552D01*
X0139952Y0077452D01*
X0139932Y0077353D01*
X0139908Y0077255D01*
X0139880Y0077158D01*
X0139849Y0077062D01*
X0139814Y0076967D01*
X0139775Y0076873D01*
X0139732Y0076782D01*
X0139686Y0076692D01*
X0139636Y0076604D01*
X0139583Y0076518D01*
X0139527Y0076434D01*
X0139467Y0076352D01*
X0139404Y0076273D01*
X0139338Y0076196D01*
X0139269Y0076123D01*
X0139197Y0076051D01*
X0139123Y0075983D01*
X0139045Y0075918D01*
X0138966Y0075856D01*
X0138883Y0075797D01*
X0138799Y0075741D01*
X0138712Y0075689D01*
X0138624Y0075640D01*
X0138534Y0075595D01*
X0138441Y0075553D01*
X0138348Y0075515D01*
X0138253Y0075481D01*
X0138156Y0075450D01*
X0138059Y0075424D01*
X0137960Y0075401D01*
X0137861Y0075382D01*
X0137761Y0075367D01*
X0137660Y0075356D01*
X0137559Y0075349D01*
X0137458Y0075346D01*
X0137357Y0075347D01*
X0137256Y0075352D01*
X0137155Y0075361D01*
X0137055Y0075374D01*
X0136955Y0075391D01*
X0136857Y0075412D01*
X0136758Y0075436D01*
X0136661Y0075465D01*
X0136566Y0075497D01*
X0136471Y0075534D01*
X0136378Y0075573D01*
X0136287Y0075617D01*
X0136198Y0075664D01*
X0136110Y0075715D01*
X0136024Y0075769D01*
X0135941Y0075826D01*
X0135860Y0075886D01*
X0135782Y0075950D01*
X0135706Y0076017D01*
X0135632Y0076087D01*
X0135562Y0076159D01*
X0135495Y0076234D01*
X0135430Y0076312D01*
X0135369Y0076393D01*
X0135311Y0076475D01*
X0135256Y0076560D01*
X0135204Y0076647D01*
X0135156Y0076736D01*
X0135112Y0076827D01*
X0135071Y0076920D01*
X0135034Y0077014D01*
X0135001Y0077109D01*
X0134971Y0077206D01*
X0134946Y0077304D01*
X0134924Y0077403D01*
X0134906Y0077502D01*
X0134892Y0077602D01*
X0134882Y0077703D01*
X0134876Y0077804D01*
X0134874Y0077905D01*
X0135268Y0087747D02*
X0135270Y0087840D01*
X0135276Y0087932D01*
X0135286Y0088024D01*
X0135300Y0088115D01*
X0135317Y0088206D01*
X0135339Y0088296D01*
X0135364Y0088385D01*
X0135393Y0088473D01*
X0135426Y0088559D01*
X0135463Y0088644D01*
X0135503Y0088728D01*
X0135547Y0088809D01*
X0135594Y0088889D01*
X0135644Y0088967D01*
X0135698Y0089042D01*
X0135755Y0089115D01*
X0135815Y0089185D01*
X0135878Y0089253D01*
X0135944Y0089318D01*
X0136012Y0089380D01*
X0136083Y0089440D01*
X0136157Y0089496D01*
X0136233Y0089549D01*
X0136311Y0089598D01*
X0136391Y0089645D01*
X0136473Y0089687D01*
X0136557Y0089727D01*
X0136642Y0089762D01*
X0136729Y0089794D01*
X0136817Y0089823D01*
X0136906Y0089847D01*
X0136996Y0089868D01*
X0137087Y0089884D01*
X0137179Y0089897D01*
X0137271Y0089906D01*
X0137364Y0089911D01*
X0137456Y0089912D01*
X0137549Y0089909D01*
X0137641Y0089902D01*
X0137733Y0089891D01*
X0137824Y0089876D01*
X0137915Y0089858D01*
X0138005Y0089835D01*
X0138093Y0089809D01*
X0138181Y0089779D01*
X0138267Y0089745D01*
X0138351Y0089708D01*
X0138434Y0089666D01*
X0138515Y0089622D01*
X0138595Y0089574D01*
X0138672Y0089523D01*
X0138746Y0089468D01*
X0138819Y0089410D01*
X0138889Y0089350D01*
X0138956Y0089286D01*
X0139020Y0089220D01*
X0139082Y0089150D01*
X0139140Y0089079D01*
X0139195Y0089005D01*
X0139247Y0088928D01*
X0139296Y0088849D01*
X0139342Y0088769D01*
X0139384Y0088686D01*
X0139422Y0088602D01*
X0139457Y0088516D01*
X0139488Y0088429D01*
X0139515Y0088341D01*
X0139538Y0088251D01*
X0139558Y0088161D01*
X0139574Y0088070D01*
X0139586Y0087978D01*
X0139594Y0087886D01*
X0139598Y0087793D01*
X0139598Y0087701D01*
X0139594Y0087608D01*
X0139586Y0087516D01*
X0139574Y0087424D01*
X0139558Y0087333D01*
X0139538Y0087243D01*
X0139515Y0087153D01*
X0139488Y0087065D01*
X0139457Y0086978D01*
X0139422Y0086892D01*
X0139384Y0086808D01*
X0139342Y0086725D01*
X0139296Y0086645D01*
X0139247Y0086566D01*
X0139195Y0086489D01*
X0139140Y0086415D01*
X0139082Y0086344D01*
X0139020Y0086274D01*
X0138956Y0086208D01*
X0138889Y0086144D01*
X0138819Y0086084D01*
X0138746Y0086026D01*
X0138672Y0085971D01*
X0138595Y0085920D01*
X0138516Y0085872D01*
X0138434Y0085828D01*
X0138351Y0085786D01*
X0138267Y0085749D01*
X0138181Y0085715D01*
X0138093Y0085685D01*
X0138005Y0085659D01*
X0137915Y0085636D01*
X0137824Y0085618D01*
X0137733Y0085603D01*
X0137641Y0085592D01*
X0137549Y0085585D01*
X0137456Y0085582D01*
X0137364Y0085583D01*
X0137271Y0085588D01*
X0137179Y0085597D01*
X0137087Y0085610D01*
X0136996Y0085626D01*
X0136906Y0085647D01*
X0136817Y0085671D01*
X0136729Y0085700D01*
X0136642Y0085732D01*
X0136557Y0085767D01*
X0136473Y0085807D01*
X0136391Y0085849D01*
X0136311Y0085896D01*
X0136233Y0085945D01*
X0136157Y0085998D01*
X0136083Y0086054D01*
X0136012Y0086114D01*
X0135944Y0086176D01*
X0135878Y0086241D01*
X0135815Y0086309D01*
X0135755Y0086379D01*
X0135698Y0086452D01*
X0135644Y0086527D01*
X0135594Y0086605D01*
X0135547Y0086685D01*
X0135503Y0086766D01*
X0135463Y0086850D01*
X0135426Y0086935D01*
X0135393Y0087021D01*
X0135364Y0087109D01*
X0135339Y0087198D01*
X0135317Y0087288D01*
X0135300Y0087379D01*
X0135286Y0087470D01*
X0135276Y0087562D01*
X0135270Y0087654D01*
X0135268Y0087747D01*
D11*
X0135723Y0093105D02*
X0137258Y0093105D01*
X0138025Y0093872D01*
X0139560Y0093105D02*
X0139560Y0097709D01*
X0138025Y0096942D02*
X0137258Y0097709D01*
X0135723Y0097709D01*
X0134956Y0096942D01*
X0134956Y0096174D01*
X0135723Y0095407D01*
X0134956Y0094640D01*
X0134956Y0093872D01*
X0135723Y0093105D01*
X0135723Y0095407D02*
X0136490Y0095407D01*
X0139560Y0093105D02*
X0141094Y0094640D01*
X0142629Y0093105D01*
X0142629Y0097709D01*
X0144163Y0096942D02*
X0144931Y0097709D01*
X0146465Y0097709D01*
X0147233Y0096942D01*
X0147233Y0096174D01*
X0146465Y0095407D01*
X0144931Y0095407D01*
X0144163Y0094640D01*
X0144163Y0093872D01*
X0144931Y0093105D01*
X0146465Y0093105D01*
X0147233Y0093872D01*
X0117508Y0082543D02*
X0117508Y0077939D01*
X0117508Y0079473D02*
X0115206Y0079473D01*
X0114438Y0080241D01*
X0114438Y0081775D01*
X0115206Y0082543D01*
X0117508Y0082543D01*
X0115973Y0079473D02*
X0114438Y0077939D01*
X0112904Y0077939D02*
X0112904Y0078706D01*
X0109834Y0081775D01*
X0109834Y0082543D01*
X0112904Y0082543D01*
X0127267Y0065803D02*
X0128802Y0065803D01*
X0129569Y0065036D01*
X0131104Y0065036D02*
X0131871Y0065803D01*
X0133406Y0065803D01*
X0134173Y0065036D01*
X0134173Y0061967D01*
X0133406Y0061199D01*
X0131871Y0061199D01*
X0131104Y0061967D01*
X0129569Y0061199D02*
X0126500Y0064269D01*
X0126500Y0065036D01*
X0127267Y0065803D01*
X0126500Y0061199D02*
X0129569Y0061199D01*
X0127530Y0033036D02*
X0125228Y0033036D01*
X0124461Y0032268D01*
X0124461Y0030734D01*
X0125228Y0029966D01*
X0127530Y0029966D01*
X0125996Y0029966D02*
X0124461Y0028432D01*
X0122926Y0028432D02*
X0119857Y0028432D01*
X0121392Y0028432D02*
X0121392Y0033036D01*
X0122926Y0031501D01*
X0127530Y0033036D02*
X0127530Y0028432D01*
X0088878Y0053023D02*
X0088878Y0055325D01*
X0088110Y0056092D01*
X0086576Y0056092D01*
X0085808Y0055325D01*
X0085808Y0053023D01*
X0084274Y0053023D02*
X0088878Y0053023D01*
X0085808Y0054558D02*
X0084274Y0056092D01*
X0085041Y0057627D02*
X0084274Y0058394D01*
X0084274Y0059929D01*
X0085041Y0060696D01*
X0086576Y0060696D01*
X0087343Y0059929D01*
X0087343Y0059162D01*
X0086576Y0057627D01*
X0088878Y0057627D01*
X0088878Y0060696D01*
X0068563Y0076321D02*
X0068563Y0077855D01*
X0068563Y0077088D02*
X0064726Y0077088D01*
X0063959Y0076321D01*
X0063959Y0075553D01*
X0064726Y0074786D01*
X0061732Y0075118D02*
X0061732Y0076797D01*
X0061190Y0077338D01*
X0058466Y0077338D01*
X0058425Y0077340D01*
X0058385Y0077345D01*
X0058345Y0077353D01*
X0058306Y0077364D01*
X0058267Y0077379D01*
X0058231Y0077396D01*
X0058195Y0077417D01*
X0058162Y0077440D01*
X0058130Y0077466D01*
X0058101Y0077494D01*
X0058074Y0077525D01*
X0057328Y0076536D02*
X0056209Y0074820D01*
X0057328Y0076536D02*
X0058336Y0074820D01*
X0061200Y0074606D02*
X0061732Y0075118D01*
X0061200Y0074606D02*
X0032853Y0074606D01*
X0032321Y0075118D01*
X0032321Y0076797D01*
X0032863Y0077338D01*
X0035587Y0077338D01*
X0035628Y0077340D01*
X0035668Y0077345D01*
X0035708Y0077353D01*
X0035747Y0077364D01*
X0035786Y0077379D01*
X0035822Y0077396D01*
X0035858Y0077417D01*
X0035891Y0077440D01*
X0035923Y0077466D01*
X0035952Y0077494D01*
X0035979Y0077525D01*
X0036277Y0078364D02*
X0032527Y0078364D01*
X0035979Y0077525D02*
X0036021Y0077580D01*
X0036061Y0077638D01*
X0036098Y0077697D01*
X0036131Y0077759D01*
X0036161Y0077822D01*
X0036188Y0077886D01*
X0036211Y0077952D01*
X0036231Y0078019D01*
X0036248Y0078087D01*
X0036260Y0078156D01*
X0036270Y0078225D01*
X0036275Y0078295D01*
X0036277Y0078364D01*
X0036277Y0072458D02*
X0036275Y0072389D01*
X0036270Y0072319D01*
X0036260Y0072250D01*
X0036248Y0072181D01*
X0036231Y0072113D01*
X0036211Y0072046D01*
X0036188Y0071980D01*
X0036161Y0071916D01*
X0036131Y0071853D01*
X0036098Y0071791D01*
X0036061Y0071732D01*
X0036021Y0071674D01*
X0035979Y0071619D01*
X0035587Y0071433D02*
X0032863Y0071433D01*
X0032321Y0070891D01*
X0032321Y0069212D01*
X0032853Y0068700D01*
X0036987Y0068700D01*
X0035587Y0071432D02*
X0035628Y0071434D01*
X0035668Y0071439D01*
X0035708Y0071447D01*
X0035747Y0071458D01*
X0035786Y0071473D01*
X0035822Y0071490D01*
X0035858Y0071511D01*
X0035891Y0071534D01*
X0035923Y0071560D01*
X0035952Y0071588D01*
X0035979Y0071619D01*
X0040924Y0068700D02*
X0045058Y0068700D01*
X0048995Y0068700D02*
X0053129Y0068700D01*
X0057066Y0068700D02*
X0061200Y0068700D01*
X0061732Y0069212D01*
X0061732Y0070891D01*
X0061190Y0071433D01*
X0058466Y0071433D01*
X0058466Y0071432D02*
X0058425Y0071434D01*
X0058385Y0071439D01*
X0058345Y0071447D01*
X0058306Y0071458D01*
X0058267Y0071473D01*
X0058231Y0071490D01*
X0058195Y0071511D01*
X0058162Y0071534D01*
X0058130Y0071560D01*
X0058101Y0071588D01*
X0058074Y0071619D01*
X0058032Y0071674D01*
X0057992Y0071732D01*
X0057955Y0071791D01*
X0057922Y0071853D01*
X0057892Y0071916D01*
X0057865Y0071980D01*
X0057842Y0072046D01*
X0057822Y0072113D01*
X0057805Y0072181D01*
X0057793Y0072250D01*
X0057783Y0072319D01*
X0057778Y0072389D01*
X0057776Y0072458D01*
X0058074Y0077525D02*
X0058032Y0077580D01*
X0057992Y0077638D01*
X0057955Y0077697D01*
X0057922Y0077759D01*
X0057892Y0077822D01*
X0057865Y0077886D01*
X0057842Y0077952D01*
X0057822Y0078019D01*
X0057805Y0078087D01*
X0057793Y0078156D01*
X0057783Y0078225D01*
X0057778Y0078295D01*
X0057776Y0078364D01*
X0063959Y0079390D02*
X0063959Y0082459D01*
X0063959Y0080925D02*
X0068563Y0080925D01*
X0067028Y0079390D01*
X0059586Y0086630D02*
X0052850Y0086630D01*
X0052850Y0086547D02*
X0052850Y0085268D01*
X0041202Y0085268D01*
X0041202Y0086630D01*
X0034467Y0086630D01*
X0046204Y0058114D02*
X0047739Y0058114D01*
X0048506Y0057347D01*
X0050041Y0058114D02*
X0051575Y0058114D01*
X0050808Y0058114D02*
X0050808Y0054278D01*
X0051575Y0053510D01*
X0052343Y0053510D01*
X0053110Y0054278D01*
X0052778Y0051283D02*
X0051099Y0051283D01*
X0050558Y0050742D01*
X0050558Y0048018D01*
X0050556Y0047977D01*
X0050551Y0047937D01*
X0050543Y0047897D01*
X0050532Y0047858D01*
X0050517Y0047819D01*
X0050500Y0047783D01*
X0050479Y0047747D01*
X0050456Y0047714D01*
X0050430Y0047682D01*
X0050402Y0047653D01*
X0050371Y0047626D01*
X0051360Y0046880D02*
X0053076Y0045760D01*
X0051360Y0046880D02*
X0053076Y0047888D01*
X0055438Y0047328D02*
X0055507Y0047330D01*
X0055577Y0047335D01*
X0055646Y0047345D01*
X0055715Y0047357D01*
X0055783Y0047374D01*
X0055850Y0047394D01*
X0055916Y0047417D01*
X0055980Y0047444D01*
X0056043Y0047474D01*
X0056105Y0047507D01*
X0056164Y0047544D01*
X0056222Y0047584D01*
X0056277Y0047626D01*
X0056463Y0048018D02*
X0056463Y0050742D01*
X0057005Y0051283D01*
X0058684Y0051283D01*
X0059196Y0050751D01*
X0059196Y0046618D01*
X0056464Y0048018D02*
X0056462Y0047977D01*
X0056457Y0047937D01*
X0056449Y0047897D01*
X0056438Y0047858D01*
X0056423Y0047819D01*
X0056406Y0047783D01*
X0056385Y0047747D01*
X0056362Y0047714D01*
X0056336Y0047682D01*
X0056308Y0047653D01*
X0056277Y0047626D01*
X0053290Y0050751D02*
X0052778Y0051283D01*
X0053290Y0050751D02*
X0053290Y0022405D01*
X0052778Y0021873D01*
X0051099Y0021873D01*
X0050558Y0022414D01*
X0050558Y0025138D01*
X0050556Y0025179D01*
X0050551Y0025219D01*
X0050543Y0025259D01*
X0050532Y0025298D01*
X0050517Y0025337D01*
X0050500Y0025373D01*
X0050479Y0025409D01*
X0050456Y0025442D01*
X0050430Y0025474D01*
X0050402Y0025503D01*
X0050371Y0025530D01*
X0049532Y0025829D02*
X0049532Y0022079D01*
X0050371Y0025530D02*
X0050316Y0025572D01*
X0050258Y0025612D01*
X0050199Y0025649D01*
X0050137Y0025682D01*
X0050074Y0025712D01*
X0050010Y0025739D01*
X0049944Y0025762D01*
X0049877Y0025782D01*
X0049809Y0025799D01*
X0049740Y0025811D01*
X0049671Y0025821D01*
X0049601Y0025826D01*
X0049532Y0025828D01*
X0055438Y0025828D02*
X0055507Y0025826D01*
X0055577Y0025821D01*
X0055646Y0025811D01*
X0055715Y0025799D01*
X0055783Y0025782D01*
X0055850Y0025762D01*
X0055916Y0025739D01*
X0055980Y0025712D01*
X0056043Y0025682D01*
X0056105Y0025649D01*
X0056164Y0025612D01*
X0056222Y0025572D01*
X0056277Y0025530D01*
X0056463Y0025138D02*
X0056463Y0022414D01*
X0057005Y0021873D01*
X0058684Y0021873D01*
X0059196Y0022405D01*
X0059196Y0026539D01*
X0056464Y0025138D02*
X0056462Y0025179D01*
X0056457Y0025219D01*
X0056449Y0025259D01*
X0056438Y0025298D01*
X0056423Y0025337D01*
X0056406Y0025373D01*
X0056385Y0025409D01*
X0056362Y0025442D01*
X0056336Y0025474D01*
X0056308Y0025503D01*
X0056277Y0025530D01*
X0059196Y0030476D02*
X0059196Y0034610D01*
X0059196Y0038547D02*
X0059196Y0042681D01*
X0050371Y0047626D02*
X0050316Y0047584D01*
X0050258Y0047544D01*
X0050199Y0047507D01*
X0050137Y0047474D01*
X0050074Y0047444D01*
X0050010Y0047417D01*
X0049944Y0047394D01*
X0049877Y0047374D01*
X0049809Y0047357D01*
X0049740Y0047345D01*
X0049671Y0047335D01*
X0049601Y0047330D01*
X0049532Y0047328D01*
X0048506Y0053510D02*
X0045437Y0053510D01*
X0048506Y0053510D02*
X0045437Y0056580D01*
X0045437Y0057347D01*
X0046204Y0058114D01*
X0041266Y0049138D02*
X0041266Y0042402D01*
X0041349Y0042402D02*
X0042628Y0042402D01*
X0042628Y0030754D01*
X0041266Y0030754D01*
X0041266Y0024019D01*
D12*
X0052685Y0046880D03*
X0057328Y0075211D03*
D13*
X0126409Y0064125D02*
X0148456Y0064125D01*
X0148456Y0087747D01*
X0148456Y0091881D01*
X0137472Y0091881D01*
X0137433Y0091881D02*
X0126409Y0091881D01*
X0126409Y0087747D01*
X0148456Y0087747D01*
X0139401Y0081055D02*
X0135464Y0081055D01*
X0135464Y0081054D02*
X0135369Y0081052D01*
X0135274Y0081046D01*
X0135179Y0081037D01*
X0135085Y0081023D01*
X0134992Y0081006D01*
X0134899Y0080985D01*
X0134807Y0080961D01*
X0134716Y0080932D01*
X0134626Y0080901D01*
X0134538Y0080865D01*
X0134451Y0080826D01*
X0134366Y0080783D01*
X0134283Y0080738D01*
X0134202Y0080688D01*
X0134122Y0080636D01*
X0134045Y0080580D01*
X0133970Y0080522D01*
X0133898Y0080460D01*
X0133828Y0080395D01*
X0133761Y0080328D01*
X0133696Y0080258D01*
X0133634Y0080186D01*
X0133576Y0080111D01*
X0133520Y0080034D01*
X0133468Y0079954D01*
X0133418Y0079873D01*
X0133373Y0079790D01*
X0133330Y0079705D01*
X0133291Y0079618D01*
X0133255Y0079530D01*
X0133224Y0079440D01*
X0133195Y0079349D01*
X0133171Y0079257D01*
X0133150Y0079164D01*
X0133133Y0079071D01*
X0133119Y0078977D01*
X0133110Y0078882D01*
X0133104Y0078787D01*
X0133102Y0078692D01*
X0133102Y0077118D01*
X0133104Y0077023D01*
X0133110Y0076928D01*
X0133119Y0076833D01*
X0133133Y0076739D01*
X0133150Y0076646D01*
X0133171Y0076553D01*
X0133195Y0076461D01*
X0133224Y0076370D01*
X0133255Y0076280D01*
X0133291Y0076192D01*
X0133330Y0076105D01*
X0133373Y0076020D01*
X0133418Y0075937D01*
X0133468Y0075856D01*
X0133520Y0075776D01*
X0133576Y0075699D01*
X0133634Y0075624D01*
X0133696Y0075552D01*
X0133761Y0075482D01*
X0133828Y0075415D01*
X0133898Y0075350D01*
X0133970Y0075288D01*
X0134045Y0075230D01*
X0134122Y0075174D01*
X0134202Y0075122D01*
X0134283Y0075072D01*
X0134366Y0075027D01*
X0134451Y0074984D01*
X0134538Y0074945D01*
X0134626Y0074909D01*
X0134716Y0074878D01*
X0134807Y0074849D01*
X0134899Y0074825D01*
X0134992Y0074804D01*
X0135085Y0074787D01*
X0135179Y0074773D01*
X0135274Y0074764D01*
X0135369Y0074758D01*
X0135464Y0074756D01*
X0135464Y0074755D02*
X0139401Y0074755D01*
X0139401Y0074756D02*
X0139496Y0074758D01*
X0139591Y0074764D01*
X0139686Y0074773D01*
X0139780Y0074787D01*
X0139873Y0074804D01*
X0139966Y0074825D01*
X0140058Y0074849D01*
X0140149Y0074878D01*
X0140239Y0074909D01*
X0140327Y0074945D01*
X0140414Y0074984D01*
X0140499Y0075027D01*
X0140582Y0075072D01*
X0140663Y0075122D01*
X0140743Y0075174D01*
X0140820Y0075230D01*
X0140895Y0075288D01*
X0140967Y0075350D01*
X0141037Y0075415D01*
X0141104Y0075482D01*
X0141169Y0075552D01*
X0141231Y0075624D01*
X0141289Y0075699D01*
X0141345Y0075776D01*
X0141397Y0075856D01*
X0141447Y0075937D01*
X0141492Y0076020D01*
X0141535Y0076105D01*
X0141574Y0076192D01*
X0141610Y0076280D01*
X0141641Y0076370D01*
X0141670Y0076461D01*
X0141694Y0076553D01*
X0141715Y0076646D01*
X0141732Y0076739D01*
X0141746Y0076833D01*
X0141755Y0076928D01*
X0141761Y0077023D01*
X0141763Y0077118D01*
X0141763Y0078692D01*
X0141761Y0078787D01*
X0141755Y0078882D01*
X0141746Y0078977D01*
X0141732Y0079071D01*
X0141715Y0079164D01*
X0141694Y0079257D01*
X0141670Y0079349D01*
X0141641Y0079440D01*
X0141610Y0079530D01*
X0141574Y0079618D01*
X0141535Y0079705D01*
X0141492Y0079790D01*
X0141447Y0079873D01*
X0141397Y0079954D01*
X0141345Y0080034D01*
X0141289Y0080111D01*
X0141231Y0080186D01*
X0141169Y0080258D01*
X0141104Y0080328D01*
X0141037Y0080395D01*
X0140967Y0080460D01*
X0140895Y0080522D01*
X0140820Y0080580D01*
X0140743Y0080636D01*
X0140663Y0080688D01*
X0140582Y0080738D01*
X0140499Y0080783D01*
X0140414Y0080826D01*
X0140327Y0080865D01*
X0140239Y0080901D01*
X0140149Y0080932D01*
X0140058Y0080961D01*
X0139966Y0080985D01*
X0139873Y0081006D01*
X0139780Y0081023D01*
X0139686Y0081037D01*
X0139591Y0081046D01*
X0139496Y0081052D01*
X0139401Y0081054D01*
X0126409Y0087747D02*
X0126409Y0064125D01*
M02*
