G75*
%MOIN*%
%OFA0B0*%
%FSLAX25Y25*%
%IPPOS*%
%LPD*%
%AMOC8*
5,1,8,0,0,1.08239X$1,22.5*
%
%ADD10C,0.00000*%
%ADD11C,0.05600*%
%ADD12R,0.04331X0.03937*%
%ADD13R,0.02756X0.03543*%
%ADD14C,0.06000*%
%ADD15OC8,0.06000*%
%ADD16R,0.03543X0.02756*%
%ADD17R,0.03937X0.00984*%
%ADD18R,0.05276X0.03937*%
%ADD19C,0.05937*%
%ADD20R,0.00984X0.03937*%
%ADD21R,0.03937X0.05276*%
%ADD22R,0.08661X0.09843*%
%ADD23R,0.06693X0.06299*%
%ADD24C,0.05937*%
%ADD25C,0.03169*%
%ADD26C,0.02400*%
%ADD27C,0.01200*%
%ADD28C,0.01000*%
%ADD29C,0.01600*%
%ADD30C,0.02578*%
D10*
X0030649Y0017263D02*
X0030649Y0092177D01*
X0152011Y0092177D01*
X0152011Y0092208D01*
X0152011Y0092177D02*
X0152011Y0017263D01*
X0152011Y0017247D01*
X0152011Y0017263D02*
X0030649Y0017263D01*
X0109471Y0019767D02*
X0109473Y0019836D01*
X0109479Y0019904D01*
X0109489Y0019972D01*
X0109503Y0020039D01*
X0109521Y0020106D01*
X0109542Y0020171D01*
X0109568Y0020235D01*
X0109597Y0020297D01*
X0109629Y0020357D01*
X0109665Y0020416D01*
X0109705Y0020472D01*
X0109747Y0020526D01*
X0109793Y0020577D01*
X0109842Y0020626D01*
X0109893Y0020672D01*
X0109947Y0020714D01*
X0110003Y0020754D01*
X0110061Y0020790D01*
X0110122Y0020822D01*
X0110184Y0020851D01*
X0110248Y0020877D01*
X0110313Y0020898D01*
X0110380Y0020916D01*
X0110447Y0020930D01*
X0110515Y0020940D01*
X0110583Y0020946D01*
X0110652Y0020948D01*
X0110721Y0020946D01*
X0110789Y0020940D01*
X0110857Y0020930D01*
X0110924Y0020916D01*
X0110991Y0020898D01*
X0111056Y0020877D01*
X0111120Y0020851D01*
X0111182Y0020822D01*
X0111242Y0020790D01*
X0111301Y0020754D01*
X0111357Y0020714D01*
X0111411Y0020672D01*
X0111462Y0020626D01*
X0111511Y0020577D01*
X0111557Y0020526D01*
X0111599Y0020472D01*
X0111639Y0020416D01*
X0111675Y0020357D01*
X0111707Y0020297D01*
X0111736Y0020235D01*
X0111762Y0020171D01*
X0111783Y0020106D01*
X0111801Y0020039D01*
X0111815Y0019972D01*
X0111825Y0019904D01*
X0111831Y0019836D01*
X0111833Y0019767D01*
X0111831Y0019698D01*
X0111825Y0019630D01*
X0111815Y0019562D01*
X0111801Y0019495D01*
X0111783Y0019428D01*
X0111762Y0019363D01*
X0111736Y0019299D01*
X0111707Y0019237D01*
X0111675Y0019176D01*
X0111639Y0019118D01*
X0111599Y0019062D01*
X0111557Y0019008D01*
X0111511Y0018957D01*
X0111462Y0018908D01*
X0111411Y0018862D01*
X0111357Y0018820D01*
X0111301Y0018780D01*
X0111243Y0018744D01*
X0111182Y0018712D01*
X0111120Y0018683D01*
X0111056Y0018657D01*
X0110991Y0018636D01*
X0110924Y0018618D01*
X0110857Y0018604D01*
X0110789Y0018594D01*
X0110721Y0018588D01*
X0110652Y0018586D01*
X0110583Y0018588D01*
X0110515Y0018594D01*
X0110447Y0018604D01*
X0110380Y0018618D01*
X0110313Y0018636D01*
X0110248Y0018657D01*
X0110184Y0018683D01*
X0110122Y0018712D01*
X0110061Y0018744D01*
X0110003Y0018780D01*
X0109947Y0018820D01*
X0109893Y0018862D01*
X0109842Y0018908D01*
X0109793Y0018957D01*
X0109747Y0019008D01*
X0109705Y0019062D01*
X0109665Y0019118D01*
X0109629Y0019176D01*
X0109597Y0019237D01*
X0109568Y0019299D01*
X0109542Y0019363D01*
X0109521Y0019428D01*
X0109503Y0019495D01*
X0109489Y0019562D01*
X0109479Y0019630D01*
X0109473Y0019698D01*
X0109471Y0019767D01*
X0123842Y0019767D02*
X0123844Y0019836D01*
X0123850Y0019904D01*
X0123860Y0019972D01*
X0123874Y0020039D01*
X0123892Y0020106D01*
X0123913Y0020171D01*
X0123939Y0020235D01*
X0123968Y0020297D01*
X0124000Y0020357D01*
X0124036Y0020416D01*
X0124076Y0020472D01*
X0124118Y0020526D01*
X0124164Y0020577D01*
X0124213Y0020626D01*
X0124264Y0020672D01*
X0124318Y0020714D01*
X0124374Y0020754D01*
X0124432Y0020790D01*
X0124493Y0020822D01*
X0124555Y0020851D01*
X0124619Y0020877D01*
X0124684Y0020898D01*
X0124751Y0020916D01*
X0124818Y0020930D01*
X0124886Y0020940D01*
X0124954Y0020946D01*
X0125023Y0020948D01*
X0125092Y0020946D01*
X0125160Y0020940D01*
X0125228Y0020930D01*
X0125295Y0020916D01*
X0125362Y0020898D01*
X0125427Y0020877D01*
X0125491Y0020851D01*
X0125553Y0020822D01*
X0125613Y0020790D01*
X0125672Y0020754D01*
X0125728Y0020714D01*
X0125782Y0020672D01*
X0125833Y0020626D01*
X0125882Y0020577D01*
X0125928Y0020526D01*
X0125970Y0020472D01*
X0126010Y0020416D01*
X0126046Y0020357D01*
X0126078Y0020297D01*
X0126107Y0020235D01*
X0126133Y0020171D01*
X0126154Y0020106D01*
X0126172Y0020039D01*
X0126186Y0019972D01*
X0126196Y0019904D01*
X0126202Y0019836D01*
X0126204Y0019767D01*
X0126202Y0019698D01*
X0126196Y0019630D01*
X0126186Y0019562D01*
X0126172Y0019495D01*
X0126154Y0019428D01*
X0126133Y0019363D01*
X0126107Y0019299D01*
X0126078Y0019237D01*
X0126046Y0019176D01*
X0126010Y0019118D01*
X0125970Y0019062D01*
X0125928Y0019008D01*
X0125882Y0018957D01*
X0125833Y0018908D01*
X0125782Y0018862D01*
X0125728Y0018820D01*
X0125672Y0018780D01*
X0125614Y0018744D01*
X0125553Y0018712D01*
X0125491Y0018683D01*
X0125427Y0018657D01*
X0125362Y0018636D01*
X0125295Y0018618D01*
X0125228Y0018604D01*
X0125160Y0018594D01*
X0125092Y0018588D01*
X0125023Y0018586D01*
X0124954Y0018588D01*
X0124886Y0018594D01*
X0124818Y0018604D01*
X0124751Y0018618D01*
X0124684Y0018636D01*
X0124619Y0018657D01*
X0124555Y0018683D01*
X0124493Y0018712D01*
X0124432Y0018744D01*
X0124374Y0018780D01*
X0124318Y0018820D01*
X0124264Y0018862D01*
X0124213Y0018908D01*
X0124164Y0018957D01*
X0124118Y0019008D01*
X0124076Y0019062D01*
X0124036Y0019118D01*
X0124000Y0019176D01*
X0123968Y0019237D01*
X0123939Y0019299D01*
X0123913Y0019363D01*
X0123892Y0019428D01*
X0123874Y0019495D01*
X0123860Y0019562D01*
X0123850Y0019630D01*
X0123844Y0019698D01*
X0123842Y0019767D01*
X0134874Y0077905D02*
X0134876Y0078006D01*
X0134882Y0078107D01*
X0134892Y0078208D01*
X0134906Y0078308D01*
X0134924Y0078407D01*
X0134946Y0078506D01*
X0134971Y0078604D01*
X0135001Y0078701D01*
X0135034Y0078796D01*
X0135071Y0078890D01*
X0135112Y0078983D01*
X0135156Y0079074D01*
X0135204Y0079163D01*
X0135256Y0079250D01*
X0135311Y0079335D01*
X0135369Y0079417D01*
X0135430Y0079498D01*
X0135495Y0079576D01*
X0135562Y0079651D01*
X0135632Y0079723D01*
X0135706Y0079793D01*
X0135782Y0079860D01*
X0135860Y0079924D01*
X0135941Y0079984D01*
X0136024Y0080041D01*
X0136110Y0080095D01*
X0136198Y0080146D01*
X0136287Y0080193D01*
X0136378Y0080237D01*
X0136471Y0080276D01*
X0136566Y0080313D01*
X0136661Y0080345D01*
X0136758Y0080374D01*
X0136857Y0080398D01*
X0136955Y0080419D01*
X0137055Y0080436D01*
X0137155Y0080449D01*
X0137256Y0080458D01*
X0137357Y0080463D01*
X0137458Y0080464D01*
X0137559Y0080461D01*
X0137660Y0080454D01*
X0137761Y0080443D01*
X0137861Y0080428D01*
X0137960Y0080409D01*
X0138059Y0080386D01*
X0138156Y0080360D01*
X0138253Y0080329D01*
X0138348Y0080295D01*
X0138441Y0080257D01*
X0138534Y0080215D01*
X0138624Y0080170D01*
X0138713Y0080121D01*
X0138799Y0080069D01*
X0138883Y0080013D01*
X0138966Y0079954D01*
X0139045Y0079892D01*
X0139123Y0079827D01*
X0139197Y0079759D01*
X0139269Y0079687D01*
X0139338Y0079614D01*
X0139404Y0079537D01*
X0139467Y0079458D01*
X0139527Y0079376D01*
X0139583Y0079292D01*
X0139636Y0079206D01*
X0139686Y0079118D01*
X0139732Y0079028D01*
X0139775Y0078937D01*
X0139814Y0078843D01*
X0139849Y0078748D01*
X0139880Y0078652D01*
X0139908Y0078555D01*
X0139932Y0078457D01*
X0139952Y0078358D01*
X0139968Y0078258D01*
X0139980Y0078157D01*
X0139988Y0078057D01*
X0139992Y0077956D01*
X0139992Y0077854D01*
X0139988Y0077753D01*
X0139980Y0077653D01*
X0139968Y0077552D01*
X0139952Y0077452D01*
X0139932Y0077353D01*
X0139908Y0077255D01*
X0139880Y0077158D01*
X0139849Y0077062D01*
X0139814Y0076967D01*
X0139775Y0076873D01*
X0139732Y0076782D01*
X0139686Y0076692D01*
X0139636Y0076604D01*
X0139583Y0076518D01*
X0139527Y0076434D01*
X0139467Y0076352D01*
X0139404Y0076273D01*
X0139338Y0076196D01*
X0139269Y0076123D01*
X0139197Y0076051D01*
X0139123Y0075983D01*
X0139045Y0075918D01*
X0138966Y0075856D01*
X0138883Y0075797D01*
X0138799Y0075741D01*
X0138712Y0075689D01*
X0138624Y0075640D01*
X0138534Y0075595D01*
X0138441Y0075553D01*
X0138348Y0075515D01*
X0138253Y0075481D01*
X0138156Y0075450D01*
X0138059Y0075424D01*
X0137960Y0075401D01*
X0137861Y0075382D01*
X0137761Y0075367D01*
X0137660Y0075356D01*
X0137559Y0075349D01*
X0137458Y0075346D01*
X0137357Y0075347D01*
X0137256Y0075352D01*
X0137155Y0075361D01*
X0137055Y0075374D01*
X0136955Y0075391D01*
X0136857Y0075412D01*
X0136758Y0075436D01*
X0136661Y0075465D01*
X0136566Y0075497D01*
X0136471Y0075534D01*
X0136378Y0075573D01*
X0136287Y0075617D01*
X0136198Y0075664D01*
X0136110Y0075715D01*
X0136024Y0075769D01*
X0135941Y0075826D01*
X0135860Y0075886D01*
X0135782Y0075950D01*
X0135706Y0076017D01*
X0135632Y0076087D01*
X0135562Y0076159D01*
X0135495Y0076234D01*
X0135430Y0076312D01*
X0135369Y0076393D01*
X0135311Y0076475D01*
X0135256Y0076560D01*
X0135204Y0076647D01*
X0135156Y0076736D01*
X0135112Y0076827D01*
X0135071Y0076920D01*
X0135034Y0077014D01*
X0135001Y0077109D01*
X0134971Y0077206D01*
X0134946Y0077304D01*
X0134924Y0077403D01*
X0134906Y0077502D01*
X0134892Y0077602D01*
X0134882Y0077703D01*
X0134876Y0077804D01*
X0134874Y0077905D01*
X0135268Y0087747D02*
X0135270Y0087840D01*
X0135276Y0087932D01*
X0135286Y0088024D01*
X0135300Y0088115D01*
X0135317Y0088206D01*
X0135339Y0088296D01*
X0135364Y0088385D01*
X0135393Y0088473D01*
X0135426Y0088559D01*
X0135463Y0088644D01*
X0135503Y0088728D01*
X0135547Y0088809D01*
X0135594Y0088889D01*
X0135644Y0088967D01*
X0135698Y0089042D01*
X0135755Y0089115D01*
X0135815Y0089185D01*
X0135878Y0089253D01*
X0135944Y0089318D01*
X0136012Y0089380D01*
X0136083Y0089440D01*
X0136157Y0089496D01*
X0136233Y0089549D01*
X0136311Y0089598D01*
X0136391Y0089645D01*
X0136473Y0089687D01*
X0136557Y0089727D01*
X0136642Y0089762D01*
X0136729Y0089794D01*
X0136817Y0089823D01*
X0136906Y0089847D01*
X0136996Y0089868D01*
X0137087Y0089884D01*
X0137179Y0089897D01*
X0137271Y0089906D01*
X0137364Y0089911D01*
X0137456Y0089912D01*
X0137549Y0089909D01*
X0137641Y0089902D01*
X0137733Y0089891D01*
X0137824Y0089876D01*
X0137915Y0089858D01*
X0138005Y0089835D01*
X0138093Y0089809D01*
X0138181Y0089779D01*
X0138267Y0089745D01*
X0138351Y0089708D01*
X0138434Y0089666D01*
X0138515Y0089622D01*
X0138595Y0089574D01*
X0138672Y0089523D01*
X0138746Y0089468D01*
X0138819Y0089410D01*
X0138889Y0089350D01*
X0138956Y0089286D01*
X0139020Y0089220D01*
X0139082Y0089150D01*
X0139140Y0089079D01*
X0139195Y0089005D01*
X0139247Y0088928D01*
X0139296Y0088849D01*
X0139342Y0088769D01*
X0139384Y0088686D01*
X0139422Y0088602D01*
X0139457Y0088516D01*
X0139488Y0088429D01*
X0139515Y0088341D01*
X0139538Y0088251D01*
X0139558Y0088161D01*
X0139574Y0088070D01*
X0139586Y0087978D01*
X0139594Y0087886D01*
X0139598Y0087793D01*
X0139598Y0087701D01*
X0139594Y0087608D01*
X0139586Y0087516D01*
X0139574Y0087424D01*
X0139558Y0087333D01*
X0139538Y0087243D01*
X0139515Y0087153D01*
X0139488Y0087065D01*
X0139457Y0086978D01*
X0139422Y0086892D01*
X0139384Y0086808D01*
X0139342Y0086725D01*
X0139296Y0086645D01*
X0139247Y0086566D01*
X0139195Y0086489D01*
X0139140Y0086415D01*
X0139082Y0086344D01*
X0139020Y0086274D01*
X0138956Y0086208D01*
X0138889Y0086144D01*
X0138819Y0086084D01*
X0138746Y0086026D01*
X0138672Y0085971D01*
X0138595Y0085920D01*
X0138516Y0085872D01*
X0138434Y0085828D01*
X0138351Y0085786D01*
X0138267Y0085749D01*
X0138181Y0085715D01*
X0138093Y0085685D01*
X0138005Y0085659D01*
X0137915Y0085636D01*
X0137824Y0085618D01*
X0137733Y0085603D01*
X0137641Y0085592D01*
X0137549Y0085585D01*
X0137456Y0085582D01*
X0137364Y0085583D01*
X0137271Y0085588D01*
X0137179Y0085597D01*
X0137087Y0085610D01*
X0136996Y0085626D01*
X0136906Y0085647D01*
X0136817Y0085671D01*
X0136729Y0085700D01*
X0136642Y0085732D01*
X0136557Y0085767D01*
X0136473Y0085807D01*
X0136391Y0085849D01*
X0136311Y0085896D01*
X0136233Y0085945D01*
X0136157Y0085998D01*
X0136083Y0086054D01*
X0136012Y0086114D01*
X0135944Y0086176D01*
X0135878Y0086241D01*
X0135815Y0086309D01*
X0135755Y0086379D01*
X0135698Y0086452D01*
X0135644Y0086527D01*
X0135594Y0086605D01*
X0135547Y0086685D01*
X0135503Y0086766D01*
X0135463Y0086850D01*
X0135426Y0086935D01*
X0135393Y0087021D01*
X0135364Y0087109D01*
X0135339Y0087198D01*
X0135317Y0087288D01*
X0135300Y0087379D01*
X0135286Y0087470D01*
X0135276Y0087562D01*
X0135270Y0087654D01*
X0135268Y0087747D01*
D11*
X0140203Y0054464D02*
X0145803Y0054464D01*
X0145803Y0044464D02*
X0140203Y0044464D01*
X0128759Y0042054D02*
X0128759Y0047654D01*
X0118759Y0047654D02*
X0118759Y0042054D01*
X0108759Y0042054D02*
X0108759Y0047654D01*
D12*
X0128526Y0058499D03*
X0135219Y0058499D03*
D13*
X0123582Y0035732D03*
X0118463Y0035732D03*
X0113559Y0085239D03*
X0108441Y0085239D03*
D14*
X0101363Y0065948D03*
D15*
X0111363Y0065948D03*
X0121363Y0065948D03*
X0121363Y0075948D03*
X0111363Y0075948D03*
X0101363Y0075948D03*
D16*
X0091574Y0062090D03*
X0091574Y0056972D03*
D17*
X0039904Y0040515D03*
X0039904Y0038547D03*
X0039904Y0036578D03*
X0039904Y0034610D03*
X0039904Y0032641D03*
D18*
X0046696Y0023242D03*
X0046696Y0049915D03*
D19*
X0137463Y0034165D02*
X0143400Y0034165D01*
X0143400Y0024165D02*
X0137463Y0024165D01*
D20*
X0050963Y0087992D03*
X0048995Y0087992D03*
X0047026Y0087992D03*
X0045058Y0087992D03*
X0043089Y0087992D03*
D21*
X0033690Y0081200D03*
X0060363Y0081200D03*
D22*
X0129756Y0069047D03*
X0145110Y0069047D03*
D23*
X0123063Y0083023D03*
D24*
X0060436Y0027247D03*
X0040751Y0027247D03*
D25*
X0061818Y0041984D03*
X0046302Y0045279D03*
X0040046Y0049543D03*
X0037641Y0045436D03*
X0074633Y0053905D03*
X0078786Y0051314D03*
X0099633Y0045405D03*
X0101133Y0057405D03*
X0114318Y0034539D03*
X0120082Y0030948D03*
X0115400Y0020527D03*
X0083987Y0032610D03*
X0138196Y0071708D03*
X0130515Y0081736D03*
X0087133Y0081405D03*
X0082928Y0083535D03*
X0076971Y0087444D03*
X0072633Y0087405D03*
X0055790Y0082051D03*
X0051420Y0082090D03*
X0041420Y0081342D03*
D26*
X0044431Y0079766D02*
X0048958Y0079766D01*
X0048551Y0080173D02*
X0049503Y0079221D01*
X0050747Y0078706D01*
X0052093Y0078706D01*
X0053337Y0079221D01*
X0053586Y0079469D01*
X0053873Y0079182D01*
X0055117Y0078666D01*
X0056463Y0078666D01*
X0056595Y0078721D01*
X0056595Y0077817D01*
X0057649Y0076762D01*
X0063077Y0076762D01*
X0064132Y0077817D01*
X0064132Y0081559D01*
X0065588Y0080103D01*
X0066935Y0078755D01*
X0078628Y0078755D01*
X0081600Y0075783D01*
X0081600Y0060247D01*
X0080242Y0058889D01*
X0072568Y0058889D01*
X0072360Y0058681D01*
X0065558Y0058681D01*
X0064211Y0057334D01*
X0059671Y0052795D01*
X0059671Y0051980D01*
X0056058Y0048366D01*
X0054711Y0047019D01*
X0054711Y0031151D01*
X0054657Y0031090D01*
X0054711Y0030209D01*
X0054711Y0029326D01*
X0054768Y0029269D01*
X0054773Y0029188D01*
X0055434Y0028603D01*
X0055718Y0028319D01*
X0055667Y0028196D01*
X0055667Y0026299D01*
X0056393Y0024546D01*
X0057735Y0023205D01*
X0059487Y0022479D01*
X0061384Y0022479D01*
X0063137Y0023205D01*
X0064478Y0024546D01*
X0065204Y0026299D01*
X0065204Y0028196D01*
X0064478Y0029949D01*
X0063137Y0031290D01*
X0061384Y0032016D01*
X0059487Y0032016D01*
X0059311Y0031943D01*
X0059311Y0045114D01*
X0062924Y0048727D01*
X0064271Y0050074D01*
X0064271Y0050889D01*
X0067463Y0054081D01*
X0071249Y0054081D01*
X0071249Y0053232D01*
X0071764Y0051988D01*
X0072716Y0051036D01*
X0073960Y0050521D01*
X0075306Y0050521D01*
X0076550Y0051036D01*
X0077119Y0051605D01*
X0078533Y0051605D01*
X0078627Y0051699D01*
X0089553Y0051699D01*
X0090900Y0053046D01*
X0091648Y0053794D01*
X0094091Y0053794D01*
X0095145Y0054848D01*
X0095145Y0055268D01*
X0095781Y0055005D01*
X0098747Y0055005D01*
X0099216Y0054536D01*
X0100460Y0054021D01*
X0101806Y0054021D01*
X0103050Y0054536D01*
X0104002Y0055488D01*
X0104517Y0056732D01*
X0104517Y0058078D01*
X0104299Y0058605D01*
X0112912Y0058605D01*
X0116065Y0055452D01*
X0116065Y0051465D01*
X0114859Y0050259D01*
X0114159Y0048569D01*
X0114159Y0041139D01*
X0114859Y0039448D01*
X0115672Y0038635D01*
X0115286Y0038249D01*
X0115286Y0037801D01*
X0114991Y0037923D01*
X0113645Y0037923D01*
X0112401Y0037408D01*
X0112124Y0037131D01*
X0109639Y0037131D01*
X0109930Y0037177D01*
X0110678Y0037420D01*
X0111379Y0037777D01*
X0112016Y0038240D01*
X0112573Y0038796D01*
X0113035Y0039433D01*
X0113392Y0040134D01*
X0113636Y0040883D01*
X0113759Y0041660D01*
X0113759Y0044854D01*
X0113759Y0048047D01*
X0113636Y0048825D01*
X0113392Y0049573D01*
X0113035Y0050274D01*
X0112573Y0050911D01*
X0112016Y0051468D01*
X0111379Y0051930D01*
X0110678Y0052287D01*
X0109930Y0052531D01*
X0109152Y0052654D01*
X0108759Y0052654D01*
X0108759Y0044854D01*
X0108759Y0044854D01*
X0113759Y0044854D01*
X0108759Y0044854D01*
X0108759Y0044854D01*
X0108759Y0052654D01*
X0108365Y0052654D01*
X0107588Y0052531D01*
X0106839Y0052287D01*
X0106138Y0051930D01*
X0105501Y0051468D01*
X0104945Y0050911D01*
X0104482Y0050274D01*
X0104125Y0049573D01*
X0103882Y0048825D01*
X0103759Y0048047D01*
X0103759Y0044854D01*
X0108759Y0044854D01*
X0108759Y0044854D01*
X0103759Y0044854D01*
X0103759Y0041660D01*
X0103882Y0040883D01*
X0104125Y0040134D01*
X0104482Y0039433D01*
X0104945Y0038796D01*
X0105501Y0038240D01*
X0106138Y0037777D01*
X0106839Y0037420D01*
X0107588Y0037177D01*
X0107878Y0037131D01*
X0103560Y0037131D01*
X0102233Y0038458D01*
X0102233Y0043219D01*
X0102502Y0043488D01*
X0103017Y0044732D01*
X0103017Y0046078D01*
X0102502Y0047322D01*
X0101550Y0048274D01*
X0100306Y0048789D01*
X0098960Y0048789D01*
X0097716Y0048274D01*
X0096764Y0047322D01*
X0096249Y0046078D01*
X0096249Y0044732D01*
X0096764Y0043488D01*
X0097033Y0043219D01*
X0097033Y0036864D01*
X0097429Y0035909D01*
X0100279Y0033058D01*
X0101010Y0032327D01*
X0101966Y0031931D01*
X0112140Y0031931D01*
X0112401Y0031670D01*
X0113645Y0031155D01*
X0114991Y0031155D01*
X0116235Y0031670D01*
X0116289Y0031724D01*
X0116369Y0027943D01*
X0118458Y0027958D01*
X0119408Y0027564D01*
X0120755Y0027564D01*
X0121762Y0027981D01*
X0134059Y0028069D01*
X0133521Y0027532D01*
X0133043Y0026874D01*
X0132674Y0026149D01*
X0132422Y0025375D01*
X0132295Y0024572D01*
X0132295Y0024165D01*
X0140432Y0024165D01*
X0148569Y0024165D01*
X0148569Y0024572D01*
X0148442Y0025375D01*
X0148190Y0026149D01*
X0147821Y0026874D01*
X0147343Y0027532D01*
X0146768Y0028107D01*
X0146695Y0028160D01*
X0149811Y0028182D01*
X0149811Y0019996D01*
X0146161Y0019782D01*
X0146768Y0020222D01*
X0147343Y0020798D01*
X0147821Y0021456D01*
X0148190Y0022181D01*
X0148442Y0022955D01*
X0148569Y0023758D01*
X0148569Y0024165D01*
X0140432Y0024165D01*
X0140432Y0024165D01*
X0140432Y0024165D01*
X0132295Y0024165D01*
X0132295Y0023758D01*
X0132422Y0022955D01*
X0132674Y0022181D01*
X0133043Y0021456D01*
X0133521Y0020798D01*
X0134096Y0020222D01*
X0134755Y0019744D01*
X0135306Y0019463D01*
X0128404Y0019463D01*
X0128404Y0020440D01*
X0127889Y0021682D01*
X0126938Y0022634D01*
X0125695Y0023148D01*
X0124350Y0023148D01*
X0123107Y0022634D01*
X0122156Y0021682D01*
X0121641Y0020440D01*
X0121641Y0019463D01*
X0114034Y0019463D01*
X0114034Y0020440D01*
X0113519Y0021682D01*
X0112568Y0022634D01*
X0111325Y0023148D01*
X0109980Y0023148D01*
X0108737Y0022634D01*
X0107786Y0021682D01*
X0107271Y0020440D01*
X0107271Y0019463D01*
X0032849Y0019463D01*
X0032849Y0032146D01*
X0032932Y0032111D01*
X0034161Y0032111D01*
X0034640Y0032310D01*
X0035736Y0032310D01*
X0035736Y0031859D01*
X0035886Y0031300D01*
X0036175Y0030798D01*
X0036585Y0030389D01*
X0036942Y0030182D01*
X0036708Y0029949D01*
X0035982Y0028196D01*
X0035982Y0026299D01*
X0036708Y0024546D01*
X0038050Y0023205D01*
X0039802Y0022479D01*
X0041699Y0022479D01*
X0042258Y0022710D01*
X0042258Y0020527D01*
X0043312Y0019473D01*
X0050079Y0019473D01*
X0051134Y0020527D01*
X0051134Y0025956D01*
X0050079Y0027010D01*
X0045519Y0027010D01*
X0045519Y0028196D01*
X0044793Y0029949D01*
X0043747Y0030995D01*
X0043923Y0031300D01*
X0044073Y0031859D01*
X0044073Y0032641D01*
X0042942Y0032641D01*
X0042942Y0032641D01*
X0044073Y0032641D01*
X0044073Y0033423D01*
X0043923Y0033982D01*
X0043673Y0034416D01*
X0043673Y0036523D01*
X0045129Y0037979D01*
X0046476Y0039326D01*
X0046476Y0041895D01*
X0046975Y0041895D01*
X0048219Y0042410D01*
X0049171Y0043362D01*
X0049686Y0044606D01*
X0049686Y0045952D01*
X0049606Y0046146D01*
X0050079Y0046146D01*
X0051134Y0047201D01*
X0051134Y0052629D01*
X0050079Y0053683D01*
X0043312Y0053683D01*
X0042258Y0052629D01*
X0042258Y0047201D01*
X0043090Y0046368D01*
X0042918Y0045952D01*
X0042918Y0045147D01*
X0041876Y0044106D01*
X0041876Y0042807D01*
X0040865Y0042807D01*
X0040857Y0042815D01*
X0039805Y0042815D01*
X0040510Y0043519D01*
X0041025Y0044763D01*
X0041025Y0046110D01*
X0040510Y0047353D01*
X0039558Y0048305D01*
X0038314Y0048821D01*
X0037893Y0048821D01*
X0037893Y0052098D01*
X0036594Y0053397D01*
X0036594Y0072397D01*
X0042198Y0078001D01*
X0043337Y0078473D01*
X0044289Y0079425D01*
X0044804Y0080669D01*
X0044804Y0081726D01*
X0046120Y0081726D01*
X0047467Y0083074D01*
X0047936Y0083542D01*
X0048027Y0083451D01*
X0048235Y0083243D01*
X0048036Y0082763D01*
X0048036Y0081417D01*
X0048551Y0080173D01*
X0048036Y0082165D02*
X0046559Y0082165D01*
X0047467Y0083074D02*
X0047467Y0083074D01*
X0041565Y0077368D02*
X0057044Y0077368D01*
X0063682Y0077368D02*
X0080016Y0077368D01*
X0081600Y0074969D02*
X0039166Y0074969D01*
X0036768Y0072571D02*
X0081600Y0072571D01*
X0081600Y0070172D02*
X0036594Y0070172D01*
X0036594Y0067774D02*
X0081600Y0067774D01*
X0081600Y0065375D02*
X0036594Y0065375D01*
X0036594Y0062977D02*
X0081600Y0062977D01*
X0081600Y0060578D02*
X0036594Y0060578D01*
X0036594Y0058180D02*
X0065056Y0058180D01*
X0062658Y0055781D02*
X0036594Y0055781D01*
X0036609Y0053383D02*
X0043012Y0053383D01*
X0042258Y0050984D02*
X0037893Y0050984D01*
X0038881Y0048586D02*
X0042258Y0048586D01*
X0043015Y0046187D02*
X0040993Y0046187D01*
X0040621Y0043789D02*
X0041876Y0043789D01*
X0046476Y0041390D02*
X0054711Y0041390D01*
X0054711Y0038992D02*
X0046141Y0038992D01*
X0043743Y0036593D02*
X0054711Y0036593D01*
X0054711Y0034195D02*
X0043801Y0034195D01*
X0044056Y0031796D02*
X0054711Y0031796D01*
X0054711Y0029398D02*
X0045022Y0029398D01*
X0050090Y0026999D02*
X0055667Y0026999D01*
X0056371Y0024600D02*
X0051134Y0024600D01*
X0051134Y0022202D02*
X0108306Y0022202D01*
X0107271Y0019803D02*
X0050410Y0019803D01*
X0042982Y0019803D02*
X0032849Y0019803D01*
X0032849Y0022202D02*
X0042258Y0022202D01*
X0036686Y0024600D02*
X0032849Y0024600D01*
X0032849Y0026999D02*
X0035982Y0026999D01*
X0036480Y0029398D02*
X0032849Y0029398D01*
X0032849Y0031796D02*
X0035753Y0031796D01*
X0049348Y0043789D02*
X0054711Y0043789D01*
X0054711Y0046187D02*
X0050120Y0046187D01*
X0051134Y0048586D02*
X0056277Y0048586D01*
X0058676Y0050984D02*
X0051134Y0050984D01*
X0050380Y0053383D02*
X0060259Y0053383D01*
X0064366Y0050984D02*
X0072841Y0050984D01*
X0071249Y0053383D02*
X0066765Y0053383D01*
X0062783Y0048586D02*
X0098468Y0048586D01*
X0096294Y0046187D02*
X0060384Y0046187D01*
X0059311Y0043789D02*
X0096639Y0043789D01*
X0097033Y0041390D02*
X0059311Y0041390D01*
X0059311Y0038992D02*
X0097033Y0038992D01*
X0097145Y0036593D02*
X0059311Y0036593D01*
X0059311Y0034195D02*
X0099143Y0034195D01*
X0102233Y0038992D02*
X0104803Y0038992D01*
X0103802Y0041390D02*
X0102233Y0041390D01*
X0102626Y0043789D02*
X0103759Y0043789D01*
X0103759Y0046187D02*
X0102972Y0046187D01*
X0103844Y0048586D02*
X0100797Y0048586D01*
X0105018Y0050984D02*
X0076425Y0050984D01*
X0091237Y0053383D02*
X0116065Y0053383D01*
X0115736Y0055781D02*
X0104123Y0055781D01*
X0104475Y0058180D02*
X0113338Y0058180D01*
X0112499Y0050984D02*
X0115584Y0050984D01*
X0114166Y0048586D02*
X0113673Y0048586D01*
X0113759Y0046187D02*
X0114159Y0046187D01*
X0114159Y0043789D02*
X0113759Y0043789D01*
X0113716Y0041390D02*
X0114159Y0041390D01*
X0115316Y0038992D02*
X0112714Y0038992D01*
X0112275Y0031796D02*
X0061915Y0031796D01*
X0064707Y0029398D02*
X0116338Y0029398D01*
X0112999Y0022202D02*
X0122676Y0022202D01*
X0121641Y0019803D02*
X0114034Y0019803D01*
X0127369Y0022202D02*
X0132667Y0022202D01*
X0132300Y0024600D02*
X0064501Y0024600D01*
X0065204Y0026999D02*
X0133134Y0026999D01*
X0132445Y0032884D02*
X0126979Y0033058D01*
X0127010Y0033111D01*
X0127160Y0033670D01*
X0127160Y0035732D01*
X0127160Y0037737D01*
X0127844Y0037454D01*
X0129674Y0037454D01*
X0131364Y0038154D01*
X0132658Y0039448D01*
X0133359Y0041139D01*
X0133359Y0048569D01*
X0133228Y0048885D01*
X0133676Y0054338D01*
X0135603Y0054102D01*
X0135603Y0053549D01*
X0136303Y0051858D01*
X0137597Y0050564D01*
X0139288Y0049864D01*
X0146718Y0049864D01*
X0148409Y0050564D01*
X0149703Y0051858D01*
X0149811Y0052120D01*
X0149811Y0047454D01*
X0149617Y0047721D01*
X0149060Y0048278D01*
X0148423Y0048740D01*
X0147722Y0049098D01*
X0146974Y0049341D01*
X0146196Y0049464D01*
X0143003Y0049464D01*
X0143003Y0044464D01*
X0143003Y0039464D01*
X0146196Y0039464D01*
X0146974Y0039587D01*
X0147722Y0039830D01*
X0148423Y0040188D01*
X0149060Y0040650D01*
X0149617Y0041207D01*
X0149811Y0041474D01*
X0149811Y0032333D01*
X0148256Y0032382D01*
X0148442Y0032955D01*
X0148569Y0033758D01*
X0148569Y0034165D01*
X0148569Y0034572D01*
X0148442Y0035375D01*
X0148190Y0036149D01*
X0147821Y0036874D01*
X0147343Y0037532D01*
X0146768Y0038107D01*
X0146109Y0038585D01*
X0145385Y0038955D01*
X0144611Y0039206D01*
X0143807Y0039333D01*
X0140432Y0039333D01*
X0140432Y0034165D01*
X0140432Y0034165D01*
X0140432Y0039333D01*
X0137057Y0039333D01*
X0136253Y0039206D01*
X0135479Y0038955D01*
X0134755Y0038585D01*
X0134096Y0038107D01*
X0133521Y0037532D01*
X0133043Y0036874D01*
X0132674Y0036149D01*
X0132422Y0035375D01*
X0132295Y0034572D01*
X0132295Y0034165D01*
X0140432Y0034165D01*
X0148569Y0034165D01*
X0140432Y0034165D01*
X0140432Y0034165D01*
X0140432Y0034165D01*
X0132295Y0034165D01*
X0132295Y0033758D01*
X0132422Y0032955D01*
X0132445Y0032884D01*
X0132295Y0034195D02*
X0127160Y0034195D01*
X0127160Y0035732D02*
X0123582Y0035732D01*
X0127160Y0035732D01*
X0127160Y0036593D02*
X0132900Y0036593D01*
X0132202Y0038992D02*
X0135593Y0038992D01*
X0136946Y0040650D02*
X0137582Y0040188D01*
X0138284Y0039830D01*
X0139032Y0039587D01*
X0139809Y0039464D01*
X0143003Y0039464D01*
X0143003Y0044464D01*
X0143003Y0044464D01*
X0143003Y0044464D01*
X0143003Y0049464D01*
X0139809Y0049464D01*
X0139032Y0049341D01*
X0138284Y0049098D01*
X0137582Y0048740D01*
X0136946Y0048278D01*
X0136389Y0047721D01*
X0135926Y0047085D01*
X0135569Y0046383D01*
X0135326Y0045635D01*
X0135203Y0044858D01*
X0135203Y0044464D01*
X0135203Y0044070D01*
X0135326Y0043293D01*
X0135569Y0042545D01*
X0135926Y0041843D01*
X0136389Y0041207D01*
X0136946Y0040650D01*
X0136256Y0041390D02*
X0133359Y0041390D01*
X0133359Y0043789D02*
X0135248Y0043789D01*
X0135203Y0044464D02*
X0143003Y0044464D01*
X0143003Y0044464D01*
X0135203Y0044464D01*
X0135505Y0046187D02*
X0133359Y0046187D01*
X0133352Y0048586D02*
X0137369Y0048586D01*
X0137177Y0050984D02*
X0133400Y0050984D01*
X0133598Y0053383D02*
X0135672Y0053383D01*
X0143003Y0048586D02*
X0143003Y0048586D01*
X0143003Y0046187D02*
X0143003Y0046187D01*
X0143003Y0043789D02*
X0143003Y0043789D01*
X0143003Y0041390D02*
X0143003Y0041390D01*
X0145271Y0038992D02*
X0149811Y0038992D01*
X0149750Y0041390D02*
X0149811Y0041390D01*
X0149811Y0036593D02*
X0147964Y0036593D01*
X0148569Y0034195D02*
X0149811Y0034195D01*
X0149811Y0026999D02*
X0147730Y0026999D01*
X0148564Y0024600D02*
X0149811Y0024600D01*
X0149811Y0022202D02*
X0148197Y0022202D01*
X0146527Y0019803D02*
X0146191Y0019803D01*
X0134673Y0019803D02*
X0128404Y0019803D01*
X0140432Y0034195D02*
X0140432Y0034195D01*
X0140432Y0036593D02*
X0140432Y0036593D01*
X0140432Y0038992D02*
X0140432Y0038992D01*
X0148636Y0048586D02*
X0149811Y0048586D01*
X0149811Y0050984D02*
X0148828Y0050984D01*
X0123582Y0035732D02*
X0123582Y0035732D01*
X0108759Y0046187D02*
X0108759Y0046187D01*
X0108759Y0048586D02*
X0108759Y0048586D01*
X0108759Y0050984D02*
X0108759Y0050984D01*
X0096563Y0066228D02*
X0095685Y0067105D01*
X0094633Y0067105D01*
X0094633Y0073362D01*
X0086749Y0081246D01*
X0086749Y0082967D01*
X0086312Y0083403D01*
X0086312Y0084105D01*
X0101480Y0084105D01*
X0102580Y0083005D01*
X0105263Y0083005D01*
X0105263Y0082722D01*
X0106317Y0081667D01*
X0110564Y0081667D01*
X0110717Y0081820D01*
X0110830Y0081707D01*
X0111332Y0081417D01*
X0111891Y0081267D01*
X0113559Y0081267D01*
X0115226Y0081267D01*
X0115786Y0081417D01*
X0116288Y0081707D01*
X0116697Y0082116D01*
X0116987Y0082618D01*
X0117137Y0083178D01*
X0117137Y0085239D01*
X0117137Y0087034D01*
X0118032Y0087034D01*
X0117916Y0086918D01*
X0117916Y0079856D01*
X0116163Y0078102D01*
X0116163Y0075948D01*
X0116163Y0073794D01*
X0116352Y0073605D01*
X0115808Y0073605D01*
X0116163Y0073960D01*
X0116163Y0077936D01*
X0113351Y0080748D01*
X0109374Y0080748D01*
X0106563Y0077936D01*
X0106563Y0074001D01*
X0106163Y0074401D01*
X0106163Y0077936D01*
X0103351Y0080748D01*
X0099374Y0080748D01*
X0096563Y0077936D01*
X0096563Y0073960D01*
X0099374Y0071148D01*
X0102910Y0071148D01*
X0104012Y0070046D01*
X0102317Y0070748D01*
X0100408Y0070748D01*
X0098644Y0070017D01*
X0097293Y0068667D01*
X0096563Y0066903D01*
X0096563Y0066228D01*
X0096923Y0067774D02*
X0094633Y0067774D01*
X0094633Y0070172D02*
X0099017Y0070172D01*
X0097952Y0072571D02*
X0094633Y0072571D01*
X0093025Y0074969D02*
X0096563Y0074969D01*
X0096563Y0077368D02*
X0090627Y0077368D01*
X0088228Y0079766D02*
X0098392Y0079766D01*
X0104333Y0079766D02*
X0108392Y0079766D01*
X0106563Y0077368D02*
X0106163Y0077368D01*
X0106163Y0074969D02*
X0106563Y0074969D01*
X0103886Y0070172D02*
X0103708Y0070172D01*
X0116163Y0074969D02*
X0116163Y0074969D01*
X0116163Y0075948D02*
X0121363Y0075948D01*
X0121363Y0075948D01*
X0116163Y0075948D01*
X0116163Y0077368D02*
X0116163Y0077368D01*
X0117827Y0079766D02*
X0114333Y0079766D01*
X0113559Y0081267D02*
X0113559Y0085239D01*
X0117137Y0085239D01*
X0113559Y0085239D01*
X0113559Y0085239D01*
X0113559Y0085239D01*
X0113559Y0081267D01*
X0113559Y0082165D02*
X0113559Y0082165D01*
X0113559Y0084563D02*
X0113559Y0084563D01*
X0117137Y0084563D02*
X0117916Y0084563D01*
X0117960Y0086962D02*
X0117137Y0086962D01*
X0116725Y0082165D02*
X0117916Y0082165D01*
X0105820Y0082165D02*
X0086749Y0082165D01*
X0065924Y0079766D02*
X0064132Y0079766D01*
D27*
X0091574Y0062090D02*
X0096259Y0057405D01*
X0101133Y0057405D01*
X0135219Y0058499D02*
X0135219Y0062700D01*
X0138428Y0065909D01*
X0138428Y0071476D01*
X0138196Y0071708D01*
D28*
X0145110Y0069047D02*
X0145908Y0069845D01*
X0145908Y0078310D01*
X0141381Y0082838D01*
X0136893Y0082838D01*
X0130397Y0089334D01*
X0112759Y0089334D01*
X0108663Y0085239D01*
X0108441Y0085239D01*
X0108375Y0085305D01*
X0103533Y0085305D01*
X0102433Y0086405D01*
X0080460Y0086405D01*
X0076710Y0082655D01*
X0070167Y0082655D01*
X0070142Y0082681D01*
X0069767Y0082681D01*
X0065436Y0087011D01*
X0057089Y0087011D01*
X0057011Y0086933D01*
X0054688Y0086933D01*
X0054156Y0086400D01*
X0054156Y0084905D01*
X0051420Y0082169D01*
X0051420Y0082090D01*
X0051911Y0084923D02*
X0049808Y0084923D01*
X0048979Y0085751D01*
X0048979Y0087976D01*
X0048995Y0087992D01*
X0050963Y0087992D02*
X0050963Y0088956D01*
X0052444Y0090436D01*
X0069601Y0090436D01*
X0072633Y0087405D01*
X0070830Y0084255D02*
X0066460Y0088625D01*
X0055003Y0088625D01*
X0054934Y0088557D01*
X0052827Y0088557D01*
X0052563Y0088293D01*
X0052563Y0087329D01*
X0052556Y0087321D01*
X0052556Y0085567D01*
X0051911Y0084923D01*
X0055790Y0084019D02*
X0055790Y0082051D01*
X0055790Y0084019D02*
X0056971Y0085200D01*
X0063743Y0085200D01*
X0067888Y0081055D01*
X0079581Y0081055D01*
X0083900Y0076736D01*
X0083900Y0059295D01*
X0081195Y0056589D01*
X0073521Y0056589D01*
X0073313Y0056381D01*
X0066511Y0056381D01*
X0061971Y0051842D01*
X0061971Y0051027D01*
X0057011Y0046066D01*
X0057011Y0030279D01*
X0060436Y0027247D01*
X0054609Y0023468D02*
X0045436Y0032641D01*
X0044255Y0032641D01*
X0039904Y0032641D01*
X0039904Y0034610D02*
X0034137Y0034610D01*
X0033546Y0035200D01*
X0035666Y0038126D02*
X0037214Y0036578D01*
X0039904Y0036578D01*
X0039904Y0038547D02*
X0042444Y0038547D01*
X0044176Y0040279D01*
X0044176Y0043153D01*
X0046302Y0045279D01*
X0039904Y0040515D02*
X0033900Y0040515D01*
X0032365Y0042051D01*
X0032365Y0075849D01*
X0033631Y0077115D01*
X0035767Y0077115D01*
X0038736Y0080084D01*
X0038736Y0082454D01*
X0040308Y0084026D01*
X0045167Y0084026D01*
X0047145Y0086003D01*
X0047145Y0086397D01*
X0047026Y0087992D01*
X0043089Y0087992D02*
X0040471Y0087992D01*
X0037838Y0085358D01*
X0041420Y0081342D02*
X0041420Y0080476D01*
X0034294Y0073350D01*
X0034294Y0052444D01*
X0035593Y0051145D01*
X0035593Y0047484D01*
X0037641Y0045436D01*
X0044255Y0032641D02*
X0044452Y0032444D01*
X0074633Y0053905D02*
X0077581Y0053905D01*
X0077674Y0053999D01*
X0088600Y0053999D01*
X0091574Y0056972D01*
X0098633Y0060905D02*
X0094733Y0064805D01*
X0093433Y0064805D01*
X0092333Y0065905D01*
X0092333Y0072409D01*
X0084449Y0080293D01*
X0084449Y0082014D01*
X0082928Y0083535D01*
X0076971Y0086027D02*
X0076971Y0087444D01*
X0076971Y0086027D02*
X0075200Y0084255D01*
X0070830Y0084255D01*
X0098633Y0060905D02*
X0113865Y0060905D01*
X0118365Y0056405D01*
X0118365Y0045247D01*
X0118759Y0044854D01*
X0118759Y0036027D01*
X0118463Y0035732D01*
X0121104Y0037959D02*
X0121104Y0031970D01*
X0120082Y0030948D01*
X0121104Y0037959D02*
X0123074Y0039929D01*
X0123074Y0054688D01*
X0121363Y0056399D01*
X0121363Y0065948D01*
X0125593Y0069216D02*
X0129586Y0069216D01*
X0129756Y0069047D01*
X0129756Y0071707D02*
X0126420Y0075043D01*
X0126420Y0077641D01*
X0130515Y0081736D01*
X0123504Y0071305D02*
X0125593Y0069216D01*
X0123504Y0071305D02*
X0106006Y0071305D01*
X0101363Y0075948D01*
D29*
X0128526Y0067818D02*
X0128526Y0058940D01*
X0143003Y0044464D01*
X0149806Y0051267D01*
X0128526Y0058499D02*
X0128526Y0058940D01*
X0128526Y0067818D02*
X0129756Y0069047D01*
X0129756Y0071707D01*
X0099633Y0045405D02*
X0099633Y0037381D01*
X0102483Y0034531D01*
X0114310Y0034531D01*
X0114318Y0034539D01*
X0113599Y0034539D01*
D30*
X0037838Y0085358D03*
X0035666Y0038126D03*
X0033546Y0035200D03*
M02*
