G75*
%MOIN*%
%OFA0B0*%
%FSLAX25Y25*%
%IPPOS*%
%LPD*%
%AMOC8*
5,1,8,0,0,1.08239X$1,22.5*
%
%ADD10C,0.00000*%
%ADD11C,0.05600*%
%ADD12R,0.03937X0.04331*%
%ADD13R,0.04331X0.03937*%
%ADD14R,0.09449X0.05512*%
%ADD15R,0.03543X0.02756*%
%ADD16R,0.05118X0.06299*%
%ADD17C,0.06000*%
%ADD18OC8,0.06000*%
%ADD19R,0.05512X0.05512*%
%ADD20R,0.05512X0.03937*%
%ADD21R,0.02756X0.03543*%
%ADD22C,0.00591*%
%ADD23R,0.12598X0.12598*%
%ADD24R,0.07874X0.05118*%
%ADD25C,0.05937*%
%ADD26C,0.05937*%
%ADD27R,0.02165X0.04724*%
%ADD28R,0.02559X0.04724*%
%ADD29R,0.02756X0.04331*%
%ADD30R,0.04331X0.05512*%
%ADD31C,0.03169*%
%ADD32C,0.01000*%
%ADD33C,0.01200*%
%ADD34C,0.01600*%
%ADD35C,0.02578*%
D10*
X0030649Y0017263D02*
X0030649Y0092177D01*
X0152011Y0092177D01*
X0152011Y0092208D01*
X0152011Y0092177D02*
X0152011Y0017263D01*
X0152011Y0017247D01*
X0152011Y0017263D02*
X0030649Y0017263D01*
X0109471Y0019767D02*
X0109473Y0019836D01*
X0109479Y0019904D01*
X0109489Y0019972D01*
X0109503Y0020039D01*
X0109521Y0020106D01*
X0109542Y0020171D01*
X0109568Y0020235D01*
X0109597Y0020297D01*
X0109629Y0020357D01*
X0109665Y0020416D01*
X0109705Y0020472D01*
X0109747Y0020526D01*
X0109793Y0020577D01*
X0109842Y0020626D01*
X0109893Y0020672D01*
X0109947Y0020714D01*
X0110003Y0020754D01*
X0110061Y0020790D01*
X0110122Y0020822D01*
X0110184Y0020851D01*
X0110248Y0020877D01*
X0110313Y0020898D01*
X0110380Y0020916D01*
X0110447Y0020930D01*
X0110515Y0020940D01*
X0110583Y0020946D01*
X0110652Y0020948D01*
X0110721Y0020946D01*
X0110789Y0020940D01*
X0110857Y0020930D01*
X0110924Y0020916D01*
X0110991Y0020898D01*
X0111056Y0020877D01*
X0111120Y0020851D01*
X0111182Y0020822D01*
X0111242Y0020790D01*
X0111301Y0020754D01*
X0111357Y0020714D01*
X0111411Y0020672D01*
X0111462Y0020626D01*
X0111511Y0020577D01*
X0111557Y0020526D01*
X0111599Y0020472D01*
X0111639Y0020416D01*
X0111675Y0020357D01*
X0111707Y0020297D01*
X0111736Y0020235D01*
X0111762Y0020171D01*
X0111783Y0020106D01*
X0111801Y0020039D01*
X0111815Y0019972D01*
X0111825Y0019904D01*
X0111831Y0019836D01*
X0111833Y0019767D01*
X0111831Y0019698D01*
X0111825Y0019630D01*
X0111815Y0019562D01*
X0111801Y0019495D01*
X0111783Y0019428D01*
X0111762Y0019363D01*
X0111736Y0019299D01*
X0111707Y0019237D01*
X0111675Y0019176D01*
X0111639Y0019118D01*
X0111599Y0019062D01*
X0111557Y0019008D01*
X0111511Y0018957D01*
X0111462Y0018908D01*
X0111411Y0018862D01*
X0111357Y0018820D01*
X0111301Y0018780D01*
X0111243Y0018744D01*
X0111182Y0018712D01*
X0111120Y0018683D01*
X0111056Y0018657D01*
X0110991Y0018636D01*
X0110924Y0018618D01*
X0110857Y0018604D01*
X0110789Y0018594D01*
X0110721Y0018588D01*
X0110652Y0018586D01*
X0110583Y0018588D01*
X0110515Y0018594D01*
X0110447Y0018604D01*
X0110380Y0018618D01*
X0110313Y0018636D01*
X0110248Y0018657D01*
X0110184Y0018683D01*
X0110122Y0018712D01*
X0110061Y0018744D01*
X0110003Y0018780D01*
X0109947Y0018820D01*
X0109893Y0018862D01*
X0109842Y0018908D01*
X0109793Y0018957D01*
X0109747Y0019008D01*
X0109705Y0019062D01*
X0109665Y0019118D01*
X0109629Y0019176D01*
X0109597Y0019237D01*
X0109568Y0019299D01*
X0109542Y0019363D01*
X0109521Y0019428D01*
X0109503Y0019495D01*
X0109489Y0019562D01*
X0109479Y0019630D01*
X0109473Y0019698D01*
X0109471Y0019767D01*
X0123842Y0019767D02*
X0123844Y0019836D01*
X0123850Y0019904D01*
X0123860Y0019972D01*
X0123874Y0020039D01*
X0123892Y0020106D01*
X0123913Y0020171D01*
X0123939Y0020235D01*
X0123968Y0020297D01*
X0124000Y0020357D01*
X0124036Y0020416D01*
X0124076Y0020472D01*
X0124118Y0020526D01*
X0124164Y0020577D01*
X0124213Y0020626D01*
X0124264Y0020672D01*
X0124318Y0020714D01*
X0124374Y0020754D01*
X0124432Y0020790D01*
X0124493Y0020822D01*
X0124555Y0020851D01*
X0124619Y0020877D01*
X0124684Y0020898D01*
X0124751Y0020916D01*
X0124818Y0020930D01*
X0124886Y0020940D01*
X0124954Y0020946D01*
X0125023Y0020948D01*
X0125092Y0020946D01*
X0125160Y0020940D01*
X0125228Y0020930D01*
X0125295Y0020916D01*
X0125362Y0020898D01*
X0125427Y0020877D01*
X0125491Y0020851D01*
X0125553Y0020822D01*
X0125613Y0020790D01*
X0125672Y0020754D01*
X0125728Y0020714D01*
X0125782Y0020672D01*
X0125833Y0020626D01*
X0125882Y0020577D01*
X0125928Y0020526D01*
X0125970Y0020472D01*
X0126010Y0020416D01*
X0126046Y0020357D01*
X0126078Y0020297D01*
X0126107Y0020235D01*
X0126133Y0020171D01*
X0126154Y0020106D01*
X0126172Y0020039D01*
X0126186Y0019972D01*
X0126196Y0019904D01*
X0126202Y0019836D01*
X0126204Y0019767D01*
X0126202Y0019698D01*
X0126196Y0019630D01*
X0126186Y0019562D01*
X0126172Y0019495D01*
X0126154Y0019428D01*
X0126133Y0019363D01*
X0126107Y0019299D01*
X0126078Y0019237D01*
X0126046Y0019176D01*
X0126010Y0019118D01*
X0125970Y0019062D01*
X0125928Y0019008D01*
X0125882Y0018957D01*
X0125833Y0018908D01*
X0125782Y0018862D01*
X0125728Y0018820D01*
X0125672Y0018780D01*
X0125614Y0018744D01*
X0125553Y0018712D01*
X0125491Y0018683D01*
X0125427Y0018657D01*
X0125362Y0018636D01*
X0125295Y0018618D01*
X0125228Y0018604D01*
X0125160Y0018594D01*
X0125092Y0018588D01*
X0125023Y0018586D01*
X0124954Y0018588D01*
X0124886Y0018594D01*
X0124818Y0018604D01*
X0124751Y0018618D01*
X0124684Y0018636D01*
X0124619Y0018657D01*
X0124555Y0018683D01*
X0124493Y0018712D01*
X0124432Y0018744D01*
X0124374Y0018780D01*
X0124318Y0018820D01*
X0124264Y0018862D01*
X0124213Y0018908D01*
X0124164Y0018957D01*
X0124118Y0019008D01*
X0124076Y0019062D01*
X0124036Y0019118D01*
X0124000Y0019176D01*
X0123968Y0019237D01*
X0123939Y0019299D01*
X0123913Y0019363D01*
X0123892Y0019428D01*
X0123874Y0019495D01*
X0123860Y0019562D01*
X0123850Y0019630D01*
X0123844Y0019698D01*
X0123842Y0019767D01*
X0134874Y0077905D02*
X0134876Y0078006D01*
X0134882Y0078107D01*
X0134892Y0078208D01*
X0134906Y0078308D01*
X0134924Y0078407D01*
X0134946Y0078506D01*
X0134971Y0078604D01*
X0135001Y0078701D01*
X0135034Y0078796D01*
X0135071Y0078890D01*
X0135112Y0078983D01*
X0135156Y0079074D01*
X0135204Y0079163D01*
X0135256Y0079250D01*
X0135311Y0079335D01*
X0135369Y0079417D01*
X0135430Y0079498D01*
X0135495Y0079576D01*
X0135562Y0079651D01*
X0135632Y0079723D01*
X0135706Y0079793D01*
X0135782Y0079860D01*
X0135860Y0079924D01*
X0135941Y0079984D01*
X0136024Y0080041D01*
X0136110Y0080095D01*
X0136198Y0080146D01*
X0136287Y0080193D01*
X0136378Y0080237D01*
X0136471Y0080276D01*
X0136566Y0080313D01*
X0136661Y0080345D01*
X0136758Y0080374D01*
X0136857Y0080398D01*
X0136955Y0080419D01*
X0137055Y0080436D01*
X0137155Y0080449D01*
X0137256Y0080458D01*
X0137357Y0080463D01*
X0137458Y0080464D01*
X0137559Y0080461D01*
X0137660Y0080454D01*
X0137761Y0080443D01*
X0137861Y0080428D01*
X0137960Y0080409D01*
X0138059Y0080386D01*
X0138156Y0080360D01*
X0138253Y0080329D01*
X0138348Y0080295D01*
X0138441Y0080257D01*
X0138534Y0080215D01*
X0138624Y0080170D01*
X0138713Y0080121D01*
X0138799Y0080069D01*
X0138883Y0080013D01*
X0138966Y0079954D01*
X0139045Y0079892D01*
X0139123Y0079827D01*
X0139197Y0079759D01*
X0139269Y0079687D01*
X0139338Y0079614D01*
X0139404Y0079537D01*
X0139467Y0079458D01*
X0139527Y0079376D01*
X0139583Y0079292D01*
X0139636Y0079206D01*
X0139686Y0079118D01*
X0139732Y0079028D01*
X0139775Y0078937D01*
X0139814Y0078843D01*
X0139849Y0078748D01*
X0139880Y0078652D01*
X0139908Y0078555D01*
X0139932Y0078457D01*
X0139952Y0078358D01*
X0139968Y0078258D01*
X0139980Y0078157D01*
X0139988Y0078057D01*
X0139992Y0077956D01*
X0139992Y0077854D01*
X0139988Y0077753D01*
X0139980Y0077653D01*
X0139968Y0077552D01*
X0139952Y0077452D01*
X0139932Y0077353D01*
X0139908Y0077255D01*
X0139880Y0077158D01*
X0139849Y0077062D01*
X0139814Y0076967D01*
X0139775Y0076873D01*
X0139732Y0076782D01*
X0139686Y0076692D01*
X0139636Y0076604D01*
X0139583Y0076518D01*
X0139527Y0076434D01*
X0139467Y0076352D01*
X0139404Y0076273D01*
X0139338Y0076196D01*
X0139269Y0076123D01*
X0139197Y0076051D01*
X0139123Y0075983D01*
X0139045Y0075918D01*
X0138966Y0075856D01*
X0138883Y0075797D01*
X0138799Y0075741D01*
X0138712Y0075689D01*
X0138624Y0075640D01*
X0138534Y0075595D01*
X0138441Y0075553D01*
X0138348Y0075515D01*
X0138253Y0075481D01*
X0138156Y0075450D01*
X0138059Y0075424D01*
X0137960Y0075401D01*
X0137861Y0075382D01*
X0137761Y0075367D01*
X0137660Y0075356D01*
X0137559Y0075349D01*
X0137458Y0075346D01*
X0137357Y0075347D01*
X0137256Y0075352D01*
X0137155Y0075361D01*
X0137055Y0075374D01*
X0136955Y0075391D01*
X0136857Y0075412D01*
X0136758Y0075436D01*
X0136661Y0075465D01*
X0136566Y0075497D01*
X0136471Y0075534D01*
X0136378Y0075573D01*
X0136287Y0075617D01*
X0136198Y0075664D01*
X0136110Y0075715D01*
X0136024Y0075769D01*
X0135941Y0075826D01*
X0135860Y0075886D01*
X0135782Y0075950D01*
X0135706Y0076017D01*
X0135632Y0076087D01*
X0135562Y0076159D01*
X0135495Y0076234D01*
X0135430Y0076312D01*
X0135369Y0076393D01*
X0135311Y0076475D01*
X0135256Y0076560D01*
X0135204Y0076647D01*
X0135156Y0076736D01*
X0135112Y0076827D01*
X0135071Y0076920D01*
X0135034Y0077014D01*
X0135001Y0077109D01*
X0134971Y0077206D01*
X0134946Y0077304D01*
X0134924Y0077403D01*
X0134906Y0077502D01*
X0134892Y0077602D01*
X0134882Y0077703D01*
X0134876Y0077804D01*
X0134874Y0077905D01*
X0135268Y0087747D02*
X0135270Y0087840D01*
X0135276Y0087932D01*
X0135286Y0088024D01*
X0135300Y0088115D01*
X0135317Y0088206D01*
X0135339Y0088296D01*
X0135364Y0088385D01*
X0135393Y0088473D01*
X0135426Y0088559D01*
X0135463Y0088644D01*
X0135503Y0088728D01*
X0135547Y0088809D01*
X0135594Y0088889D01*
X0135644Y0088967D01*
X0135698Y0089042D01*
X0135755Y0089115D01*
X0135815Y0089185D01*
X0135878Y0089253D01*
X0135944Y0089318D01*
X0136012Y0089380D01*
X0136083Y0089440D01*
X0136157Y0089496D01*
X0136233Y0089549D01*
X0136311Y0089598D01*
X0136391Y0089645D01*
X0136473Y0089687D01*
X0136557Y0089727D01*
X0136642Y0089762D01*
X0136729Y0089794D01*
X0136817Y0089823D01*
X0136906Y0089847D01*
X0136996Y0089868D01*
X0137087Y0089884D01*
X0137179Y0089897D01*
X0137271Y0089906D01*
X0137364Y0089911D01*
X0137456Y0089912D01*
X0137549Y0089909D01*
X0137641Y0089902D01*
X0137733Y0089891D01*
X0137824Y0089876D01*
X0137915Y0089858D01*
X0138005Y0089835D01*
X0138093Y0089809D01*
X0138181Y0089779D01*
X0138267Y0089745D01*
X0138351Y0089708D01*
X0138434Y0089666D01*
X0138515Y0089622D01*
X0138595Y0089574D01*
X0138672Y0089523D01*
X0138746Y0089468D01*
X0138819Y0089410D01*
X0138889Y0089350D01*
X0138956Y0089286D01*
X0139020Y0089220D01*
X0139082Y0089150D01*
X0139140Y0089079D01*
X0139195Y0089005D01*
X0139247Y0088928D01*
X0139296Y0088849D01*
X0139342Y0088769D01*
X0139384Y0088686D01*
X0139422Y0088602D01*
X0139457Y0088516D01*
X0139488Y0088429D01*
X0139515Y0088341D01*
X0139538Y0088251D01*
X0139558Y0088161D01*
X0139574Y0088070D01*
X0139586Y0087978D01*
X0139594Y0087886D01*
X0139598Y0087793D01*
X0139598Y0087701D01*
X0139594Y0087608D01*
X0139586Y0087516D01*
X0139574Y0087424D01*
X0139558Y0087333D01*
X0139538Y0087243D01*
X0139515Y0087153D01*
X0139488Y0087065D01*
X0139457Y0086978D01*
X0139422Y0086892D01*
X0139384Y0086808D01*
X0139342Y0086725D01*
X0139296Y0086645D01*
X0139247Y0086566D01*
X0139195Y0086489D01*
X0139140Y0086415D01*
X0139082Y0086344D01*
X0139020Y0086274D01*
X0138956Y0086208D01*
X0138889Y0086144D01*
X0138819Y0086084D01*
X0138746Y0086026D01*
X0138672Y0085971D01*
X0138595Y0085920D01*
X0138516Y0085872D01*
X0138434Y0085828D01*
X0138351Y0085786D01*
X0138267Y0085749D01*
X0138181Y0085715D01*
X0138093Y0085685D01*
X0138005Y0085659D01*
X0137915Y0085636D01*
X0137824Y0085618D01*
X0137733Y0085603D01*
X0137641Y0085592D01*
X0137549Y0085585D01*
X0137456Y0085582D01*
X0137364Y0085583D01*
X0137271Y0085588D01*
X0137179Y0085597D01*
X0137087Y0085610D01*
X0136996Y0085626D01*
X0136906Y0085647D01*
X0136817Y0085671D01*
X0136729Y0085700D01*
X0136642Y0085732D01*
X0136557Y0085767D01*
X0136473Y0085807D01*
X0136391Y0085849D01*
X0136311Y0085896D01*
X0136233Y0085945D01*
X0136157Y0085998D01*
X0136083Y0086054D01*
X0136012Y0086114D01*
X0135944Y0086176D01*
X0135878Y0086241D01*
X0135815Y0086309D01*
X0135755Y0086379D01*
X0135698Y0086452D01*
X0135644Y0086527D01*
X0135594Y0086605D01*
X0135547Y0086685D01*
X0135503Y0086766D01*
X0135463Y0086850D01*
X0135426Y0086935D01*
X0135393Y0087021D01*
X0135364Y0087109D01*
X0135339Y0087198D01*
X0135317Y0087288D01*
X0135300Y0087379D01*
X0135286Y0087470D01*
X0135276Y0087562D01*
X0135270Y0087654D01*
X0135268Y0087747D01*
D11*
X0140203Y0054464D02*
X0145803Y0054464D01*
X0145803Y0044464D02*
X0140203Y0044464D01*
X0128759Y0042054D02*
X0128759Y0047654D01*
X0118759Y0047654D02*
X0118759Y0042054D01*
X0108759Y0042054D02*
X0108759Y0047654D01*
D12*
X0092116Y0072933D03*
X0092116Y0079625D03*
X0039759Y0075196D03*
X0039759Y0068503D03*
X0039759Y0062055D03*
X0039759Y0055362D03*
D13*
X0090066Y0087212D03*
X0096759Y0087212D03*
D14*
X0099558Y0038118D03*
X0099558Y0028669D03*
D15*
X0075074Y0029444D03*
X0070184Y0029405D03*
X0075074Y0024326D03*
X0070184Y0024287D03*
X0070267Y0036188D03*
X0074999Y0036244D03*
X0074999Y0041362D03*
X0070267Y0041307D03*
D16*
X0081373Y0027818D03*
X0089247Y0027818D03*
D17*
X0101363Y0065948D03*
D18*
X0111363Y0065948D03*
X0121363Y0065948D03*
X0121363Y0075948D03*
X0111363Y0075948D03*
X0101363Y0075948D03*
D19*
X0130665Y0075870D03*
X0145626Y0075870D03*
D20*
X0131503Y0066921D03*
X0140164Y0063181D03*
X0131503Y0059440D03*
D21*
X0088046Y0051877D03*
X0082928Y0051877D03*
X0064845Y0035555D03*
X0059727Y0035555D03*
X0055790Y0031539D03*
X0050672Y0031539D03*
D22*
X0063448Y0058070D02*
X0064038Y0058070D01*
X0063448Y0058070D02*
X0063448Y0060236D01*
X0064038Y0060236D01*
X0064038Y0058070D01*
X0064038Y0058660D02*
X0063448Y0058660D01*
X0063448Y0059250D02*
X0064038Y0059250D01*
X0064038Y0059840D02*
X0063448Y0059840D01*
X0065417Y0058070D02*
X0066007Y0058070D01*
X0065417Y0058070D02*
X0065417Y0060236D01*
X0066007Y0060236D01*
X0066007Y0058070D01*
X0066007Y0058660D02*
X0065417Y0058660D01*
X0065417Y0059250D02*
X0066007Y0059250D01*
X0066007Y0059840D02*
X0065417Y0059840D01*
X0067385Y0058070D02*
X0067975Y0058070D01*
X0067385Y0058070D02*
X0067385Y0060236D01*
X0067975Y0060236D01*
X0067975Y0058070D01*
X0067975Y0058660D02*
X0067385Y0058660D01*
X0067385Y0059250D02*
X0067975Y0059250D01*
X0067975Y0059840D02*
X0067385Y0059840D01*
X0069354Y0058070D02*
X0069944Y0058070D01*
X0069354Y0058070D02*
X0069354Y0060236D01*
X0069944Y0060236D01*
X0069944Y0058070D01*
X0069944Y0058660D02*
X0069354Y0058660D01*
X0069354Y0059250D02*
X0069944Y0059250D01*
X0069944Y0059840D02*
X0069354Y0059840D01*
X0071322Y0058070D02*
X0071912Y0058070D01*
X0071322Y0058070D02*
X0071322Y0060236D01*
X0071912Y0060236D01*
X0071912Y0058070D01*
X0071912Y0058660D02*
X0071322Y0058660D01*
X0071322Y0059250D02*
X0071912Y0059250D01*
X0071912Y0059840D02*
X0071322Y0059840D01*
X0073291Y0058070D02*
X0073881Y0058070D01*
X0073291Y0058070D02*
X0073291Y0060236D01*
X0073881Y0060236D01*
X0073881Y0058070D01*
X0073881Y0058660D02*
X0073291Y0058660D01*
X0073291Y0059250D02*
X0073881Y0059250D01*
X0073881Y0059840D02*
X0073291Y0059840D01*
X0075259Y0058070D02*
X0075849Y0058070D01*
X0075259Y0058070D02*
X0075259Y0060236D01*
X0075849Y0060236D01*
X0075849Y0058070D01*
X0075849Y0058660D02*
X0075259Y0058660D01*
X0075259Y0059250D02*
X0075849Y0059250D01*
X0075849Y0059840D02*
X0075259Y0059840D01*
X0077228Y0058070D02*
X0077818Y0058070D01*
X0077228Y0058070D02*
X0077228Y0060236D01*
X0077818Y0060236D01*
X0077818Y0058070D01*
X0077818Y0058660D02*
X0077228Y0058660D01*
X0077228Y0059250D02*
X0077818Y0059250D01*
X0077818Y0059840D02*
X0077228Y0059840D01*
X0078802Y0061220D02*
X0080968Y0061220D01*
X0078802Y0061220D02*
X0078802Y0061810D01*
X0080968Y0061810D01*
X0080968Y0061220D01*
X0080968Y0061810D02*
X0078802Y0061810D01*
X0078802Y0063189D02*
X0080968Y0063189D01*
X0078802Y0063189D02*
X0078802Y0063779D01*
X0080968Y0063779D01*
X0080968Y0063189D01*
X0080968Y0063779D02*
X0078802Y0063779D01*
X0078802Y0065157D02*
X0080968Y0065157D01*
X0078802Y0065157D02*
X0078802Y0065747D01*
X0080968Y0065747D01*
X0080968Y0065157D01*
X0080968Y0065747D02*
X0078802Y0065747D01*
X0078802Y0067126D02*
X0080968Y0067126D01*
X0078802Y0067126D02*
X0078802Y0067716D01*
X0080968Y0067716D01*
X0080968Y0067126D01*
X0080968Y0067716D02*
X0078802Y0067716D01*
X0078802Y0069094D02*
X0080968Y0069094D01*
X0078802Y0069094D02*
X0078802Y0069684D01*
X0080968Y0069684D01*
X0080968Y0069094D01*
X0080968Y0069684D02*
X0078802Y0069684D01*
X0078802Y0071063D02*
X0080968Y0071063D01*
X0078802Y0071063D02*
X0078802Y0071653D01*
X0080968Y0071653D01*
X0080968Y0071063D01*
X0080968Y0071653D02*
X0078802Y0071653D01*
X0078802Y0073031D02*
X0080968Y0073031D01*
X0078802Y0073031D02*
X0078802Y0073621D01*
X0080968Y0073621D01*
X0080968Y0073031D01*
X0080968Y0073621D02*
X0078802Y0073621D01*
X0078802Y0075000D02*
X0080968Y0075000D01*
X0078802Y0075000D02*
X0078802Y0075590D01*
X0080968Y0075590D01*
X0080968Y0075000D01*
X0080968Y0075590D02*
X0078802Y0075590D01*
X0077818Y0076574D02*
X0077228Y0076574D01*
X0077228Y0078740D01*
X0077818Y0078740D01*
X0077818Y0076574D01*
X0077818Y0077164D02*
X0077228Y0077164D01*
X0077228Y0077754D02*
X0077818Y0077754D01*
X0077818Y0078344D02*
X0077228Y0078344D01*
X0075849Y0076574D02*
X0075259Y0076574D01*
X0075259Y0078740D01*
X0075849Y0078740D01*
X0075849Y0076574D01*
X0075849Y0077164D02*
X0075259Y0077164D01*
X0075259Y0077754D02*
X0075849Y0077754D01*
X0075849Y0078344D02*
X0075259Y0078344D01*
X0073881Y0076574D02*
X0073291Y0076574D01*
X0073291Y0078740D01*
X0073881Y0078740D01*
X0073881Y0076574D01*
X0073881Y0077164D02*
X0073291Y0077164D01*
X0073291Y0077754D02*
X0073881Y0077754D01*
X0073881Y0078344D02*
X0073291Y0078344D01*
X0071912Y0076574D02*
X0071322Y0076574D01*
X0071322Y0078740D01*
X0071912Y0078740D01*
X0071912Y0076574D01*
X0071912Y0077164D02*
X0071322Y0077164D01*
X0071322Y0077754D02*
X0071912Y0077754D01*
X0071912Y0078344D02*
X0071322Y0078344D01*
X0069944Y0076574D02*
X0069354Y0076574D01*
X0069354Y0078740D01*
X0069944Y0078740D01*
X0069944Y0076574D01*
X0069944Y0077164D02*
X0069354Y0077164D01*
X0069354Y0077754D02*
X0069944Y0077754D01*
X0069944Y0078344D02*
X0069354Y0078344D01*
X0067975Y0076574D02*
X0067385Y0076574D01*
X0067385Y0078740D01*
X0067975Y0078740D01*
X0067975Y0076574D01*
X0067975Y0077164D02*
X0067385Y0077164D01*
X0067385Y0077754D02*
X0067975Y0077754D01*
X0067975Y0078344D02*
X0067385Y0078344D01*
X0066007Y0076574D02*
X0065417Y0076574D01*
X0065417Y0078740D01*
X0066007Y0078740D01*
X0066007Y0076574D01*
X0066007Y0077164D02*
X0065417Y0077164D01*
X0065417Y0077754D02*
X0066007Y0077754D01*
X0066007Y0078344D02*
X0065417Y0078344D01*
X0064038Y0076574D02*
X0063448Y0076574D01*
X0063448Y0078740D01*
X0064038Y0078740D01*
X0064038Y0076574D01*
X0064038Y0077164D02*
X0063448Y0077164D01*
X0063448Y0077754D02*
X0064038Y0077754D01*
X0064038Y0078344D02*
X0063448Y0078344D01*
X0062464Y0075000D02*
X0060298Y0075000D01*
X0060298Y0075590D01*
X0062464Y0075590D01*
X0062464Y0075000D01*
X0062464Y0075590D02*
X0060298Y0075590D01*
X0060298Y0073031D02*
X0062464Y0073031D01*
X0060298Y0073031D02*
X0060298Y0073621D01*
X0062464Y0073621D01*
X0062464Y0073031D01*
X0062464Y0073621D02*
X0060298Y0073621D01*
X0060298Y0071063D02*
X0062464Y0071063D01*
X0060298Y0071063D02*
X0060298Y0071653D01*
X0062464Y0071653D01*
X0062464Y0071063D01*
X0062464Y0071653D02*
X0060298Y0071653D01*
X0060298Y0069094D02*
X0062464Y0069094D01*
X0060298Y0069094D02*
X0060298Y0069684D01*
X0062464Y0069684D01*
X0062464Y0069094D01*
X0062464Y0069684D02*
X0060298Y0069684D01*
X0060298Y0067126D02*
X0062464Y0067126D01*
X0060298Y0067126D02*
X0060298Y0067716D01*
X0062464Y0067716D01*
X0062464Y0067126D01*
X0062464Y0067716D02*
X0060298Y0067716D01*
X0060298Y0065157D02*
X0062464Y0065157D01*
X0060298Y0065157D02*
X0060298Y0065747D01*
X0062464Y0065747D01*
X0062464Y0065157D01*
X0062464Y0065747D02*
X0060298Y0065747D01*
X0060298Y0063189D02*
X0062464Y0063189D01*
X0060298Y0063189D02*
X0060298Y0063779D01*
X0062464Y0063779D01*
X0062464Y0063189D01*
X0062464Y0063779D02*
X0060298Y0063779D01*
X0060298Y0061220D02*
X0062464Y0061220D01*
X0060298Y0061220D02*
X0060298Y0061810D01*
X0062464Y0061810D01*
X0062464Y0061220D01*
X0062464Y0061810D02*
X0060298Y0061810D01*
D23*
X0070633Y0068405D03*
D24*
X0049578Y0072102D03*
X0049578Y0057141D03*
D25*
X0137463Y0034165D02*
X0143400Y0034165D01*
X0143400Y0024165D02*
X0137463Y0024165D01*
D26*
X0060436Y0027247D03*
X0040751Y0027247D03*
D27*
X0080475Y0035476D03*
X0087956Y0035476D03*
X0087956Y0045712D03*
X0084215Y0045712D03*
X0080475Y0045712D03*
D28*
X0054196Y0045161D03*
X0050456Y0045161D03*
X0050456Y0038074D03*
X0054196Y0038074D03*
D29*
X0112286Y0024885D03*
X0123310Y0025082D03*
D30*
X0117837Y0025870D03*
D31*
X0120082Y0030948D03*
X0114318Y0034539D03*
X0099633Y0045405D03*
X0101133Y0057405D03*
X0078786Y0051314D03*
X0074633Y0053905D03*
X0061818Y0041984D03*
X0046302Y0045279D03*
X0040046Y0049543D03*
X0037641Y0045436D03*
X0041420Y0081342D03*
X0051420Y0082090D03*
X0055790Y0082051D03*
X0072633Y0087405D03*
X0076971Y0087444D03*
X0082928Y0083535D03*
X0087133Y0081405D03*
X0130515Y0081736D03*
X0138196Y0071708D03*
X0083987Y0032610D03*
X0115400Y0020527D03*
D32*
X0115400Y0021771D01*
X0112286Y0024885D01*
X0107355Y0024395D02*
X0085897Y0024395D01*
X0085897Y0024133D02*
X0085200Y0023909D01*
X0084730Y0023911D01*
X0084388Y0023569D01*
X0078358Y0023569D01*
X0077981Y0023946D01*
X0077538Y0023948D01*
X0076999Y0024606D01*
X0077038Y0026966D01*
X0072846Y0026966D01*
X0072649Y0027164D01*
X0072411Y0026927D01*
X0067957Y0026927D01*
X0067315Y0027569D01*
X0065790Y0027574D01*
X0065869Y0022310D01*
X0066475Y0021785D01*
X0105476Y0021785D01*
X0107355Y0023664D01*
X0107355Y0028681D01*
X0107334Y0031169D01*
X0106597Y0032023D01*
X0092936Y0032062D01*
X0091873Y0032043D01*
X0090873Y0030767D01*
X0086121Y0030688D01*
X0085897Y0030464D01*
X0085897Y0024133D01*
X0085897Y0025393D02*
X0107355Y0025393D01*
X0107355Y0026392D02*
X0085897Y0026392D01*
X0085897Y0027390D02*
X0107355Y0027390D01*
X0107355Y0028389D02*
X0085897Y0028389D01*
X0085897Y0029387D02*
X0107349Y0029387D01*
X0107340Y0030386D02*
X0085897Y0030386D01*
X0083987Y0030433D02*
X0083987Y0032610D01*
X0083987Y0030433D02*
X0081373Y0027818D01*
X0080428Y0029405D01*
X0080979Y0028381D02*
X0081373Y0027818D01*
X0077028Y0026392D02*
X0065808Y0026392D01*
X0065793Y0027390D02*
X0067494Y0027390D01*
X0065823Y0025393D02*
X0077012Y0025393D01*
X0077172Y0024395D02*
X0065838Y0024395D01*
X0065853Y0023396D02*
X0107086Y0023396D01*
X0106088Y0022398D02*
X0065868Y0022398D01*
X0060436Y0027247D02*
X0060436Y0034846D01*
X0060434Y0034897D01*
X0060429Y0034947D01*
X0060420Y0034997D01*
X0060407Y0035046D01*
X0060391Y0035094D01*
X0060372Y0035141D01*
X0060349Y0035186D01*
X0060323Y0035229D01*
X0060295Y0035271D01*
X0060263Y0035310D01*
X0060228Y0035347D01*
X0060191Y0035382D01*
X0060152Y0035414D01*
X0060110Y0035442D01*
X0060067Y0035468D01*
X0060022Y0035491D01*
X0059975Y0035510D01*
X0059927Y0035526D01*
X0059878Y0035539D01*
X0059828Y0035548D01*
X0059778Y0035553D01*
X0059727Y0035555D01*
X0061649Y0038338D02*
X0061561Y0038426D01*
X0059140Y0038426D01*
X0058676Y0038893D01*
X0058519Y0043129D01*
X0059334Y0043984D01*
X0077393Y0043984D01*
X0077393Y0038555D01*
X0077226Y0038721D01*
X0072772Y0038721D01*
X0072605Y0038555D01*
X0072494Y0038666D01*
X0068039Y0038666D01*
X0067778Y0038405D01*
X0065633Y0038405D01*
X0061649Y0038338D01*
X0061613Y0038374D02*
X0063761Y0038374D01*
X0064845Y0040673D02*
X0064845Y0035555D01*
X0070267Y0036188D02*
X0070268Y0036200D01*
X0070272Y0036212D01*
X0070279Y0036222D01*
X0070288Y0036231D01*
X0070298Y0036238D01*
X0070310Y0036242D01*
X0070322Y0036243D01*
X0070322Y0036244D02*
X0074999Y0036244D01*
X0075113Y0035893D01*
X0075074Y0029444D01*
X0070184Y0029405D01*
X0074105Y0035405D02*
X0080404Y0035405D01*
X0080475Y0035476D01*
X0077393Y0039372D02*
X0058658Y0039372D01*
X0058621Y0040371D02*
X0077393Y0040371D01*
X0077393Y0041369D02*
X0058584Y0041369D01*
X0058547Y0042368D02*
X0077393Y0042368D01*
X0077393Y0043366D02*
X0058745Y0043366D01*
X0056893Y0045436D02*
X0056893Y0040771D01*
X0054196Y0038074D01*
X0050672Y0037858D02*
X0050672Y0031539D01*
X0048839Y0028667D02*
X0047636Y0029870D01*
X0043373Y0029870D01*
X0040751Y0027247D01*
X0047636Y0029870D02*
X0047636Y0039765D01*
X0045441Y0041959D01*
X0041118Y0041959D01*
X0037641Y0045436D01*
X0035666Y0043553D02*
X0035666Y0038126D01*
X0033546Y0035200D02*
X0032326Y0036421D01*
X0032326Y0089531D01*
X0033231Y0090436D01*
X0060593Y0090436D01*
X0065133Y0085897D01*
X0065133Y0083405D01*
X0067633Y0080905D01*
X0067633Y0077704D01*
X0067680Y0077657D01*
X0065712Y0077657D02*
X0065712Y0079610D01*
X0063034Y0082287D01*
X0063034Y0085082D01*
X0060318Y0087799D01*
X0035082Y0087799D01*
X0034255Y0086972D01*
X0034255Y0044964D01*
X0035666Y0043553D01*
X0040046Y0049543D02*
X0039759Y0049830D01*
X0039759Y0055362D01*
X0036223Y0058897D01*
X0036223Y0067129D01*
X0037597Y0068503D01*
X0039759Y0068503D01*
X0039759Y0062055D02*
X0044664Y0062055D01*
X0049578Y0057141D01*
X0053952Y0061515D01*
X0057180Y0061515D01*
X0058196Y0063484D02*
X0049578Y0072102D01*
X0046483Y0075196D01*
X0039759Y0075196D01*
X0045003Y0077759D02*
X0041420Y0081342D01*
X0044356Y0085358D02*
X0037838Y0085358D01*
X0044356Y0085358D02*
X0050308Y0079406D01*
X0052376Y0079406D01*
X0054016Y0077766D01*
X0055549Y0077766D01*
X0059989Y0073326D01*
X0061381Y0073326D01*
X0061381Y0075295D02*
X0058960Y0077715D01*
X0057863Y0077715D01*
X0056212Y0079366D01*
X0054678Y0079366D01*
X0051955Y0082090D01*
X0051420Y0082090D01*
X0055790Y0082051D02*
X0058525Y0079315D01*
X0062084Y0079315D01*
X0063743Y0077657D01*
X0069649Y0077657D02*
X0069649Y0088421D01*
X0071633Y0090405D01*
X0086873Y0090405D01*
X0090066Y0087212D01*
X0090629Y0087212D01*
X0094609Y0083232D01*
X0110515Y0083232D01*
X0116381Y0077366D01*
X0116381Y0070930D01*
X0121363Y0065948D01*
X0115633Y0063605D02*
X0115633Y0068805D01*
X0111433Y0073005D01*
X0111433Y0075878D01*
X0111363Y0075948D01*
X0106706Y0070605D02*
X0095478Y0070605D01*
X0094540Y0069667D01*
X0094095Y0069667D01*
X0085943Y0061515D01*
X0079885Y0061515D01*
X0079885Y0063484D02*
X0082212Y0063484D01*
X0083133Y0064405D01*
X0083133Y0067405D01*
X0083149Y0067421D01*
X0086604Y0067421D01*
X0092116Y0072933D01*
X0098347Y0072933D01*
X0101363Y0075948D01*
X0106706Y0070605D02*
X0111363Y0065948D01*
X0115633Y0063605D02*
X0113433Y0061405D01*
X0092633Y0061405D01*
X0087633Y0056405D01*
X0076433Y0056405D01*
X0075554Y0057284D01*
X0075554Y0059153D01*
X0073586Y0059153D02*
X0073586Y0054952D01*
X0074633Y0053905D01*
X0069649Y0051381D02*
X0067916Y0049649D01*
X0058684Y0049649D01*
X0054196Y0045161D01*
X0056893Y0045436D02*
X0058940Y0047484D01*
X0070712Y0047484D01*
X0071617Y0048389D01*
X0071617Y0059153D01*
X0069649Y0059153D02*
X0069649Y0051381D01*
X0067680Y0053232D02*
X0065948Y0051499D01*
X0057601Y0051499D01*
X0055357Y0049255D01*
X0051578Y0049255D01*
X0050593Y0048271D01*
X0050593Y0045299D01*
X0050456Y0045161D01*
X0048076Y0047053D02*
X0048076Y0048737D01*
X0050445Y0051106D01*
X0053074Y0051106D01*
X0055200Y0053232D01*
X0057822Y0053232D01*
X0063743Y0059153D01*
X0067680Y0059153D02*
X0067680Y0053232D01*
X0077523Y0059153D02*
X0086881Y0059153D01*
X0092133Y0064405D01*
X0095133Y0064405D01*
X0096676Y0065948D01*
X0101363Y0065948D01*
X0108365Y0054232D02*
X0108365Y0045247D01*
X0108759Y0044854D01*
X0105028Y0040869D02*
X0104471Y0041366D01*
X0095404Y0041444D01*
X0092267Y0041338D01*
X0091046Y0040047D01*
X0089975Y0038031D01*
X0086515Y0037992D01*
X0086251Y0037964D01*
X0086189Y0034204D01*
X0086263Y0034130D01*
X0086671Y0033144D01*
X0086671Y0032825D01*
X0086751Y0032767D01*
X0089830Y0032846D01*
X0090960Y0033858D01*
X0092023Y0034901D01*
X0093444Y0034905D01*
X0104904Y0034826D01*
X0105523Y0035366D01*
X0105557Y0039740D01*
X0105452Y0039845D01*
X0105028Y0040869D01*
X0105235Y0040371D02*
X0091352Y0040371D01*
X0090688Y0039372D02*
X0105554Y0039372D01*
X0105546Y0038374D02*
X0090157Y0038374D01*
X0086241Y0037375D02*
X0105538Y0037375D01*
X0105530Y0036377D02*
X0086225Y0036377D01*
X0086208Y0035378D02*
X0105523Y0035378D01*
X0109445Y0032277D02*
X0110120Y0032277D01*
X0113466Y0035623D01*
X0122215Y0035623D01*
X0125945Y0039353D01*
X0126550Y0038748D01*
X0127983Y0038154D01*
X0129535Y0038154D01*
X0130968Y0038748D01*
X0132065Y0039845D01*
X0132659Y0041278D01*
X0132659Y0042905D01*
X0133074Y0042917D01*
X0132759Y0050043D01*
X0133664Y0050988D01*
X0138404Y0050988D01*
X0139427Y0050564D01*
X0146579Y0050564D01*
X0147601Y0050988D01*
X0150511Y0050988D01*
X0150511Y0031850D01*
X0148349Y0029688D01*
X0143846Y0029711D01*
X0144447Y0029806D01*
X0145116Y0030024D01*
X0145742Y0030343D01*
X0146312Y0030756D01*
X0146809Y0031254D01*
X0147222Y0031823D01*
X0147542Y0032449D01*
X0147759Y0033118D01*
X0147848Y0033681D01*
X0140916Y0033681D01*
X0140916Y0034649D01*
X0139948Y0034649D01*
X0139948Y0038633D01*
X0137112Y0038633D01*
X0136417Y0038523D01*
X0135748Y0038306D01*
X0135121Y0037987D01*
X0134552Y0037573D01*
X0134055Y0037076D01*
X0133642Y0036507D01*
X0133322Y0035880D01*
X0133105Y0035211D01*
X0133016Y0034649D01*
X0139948Y0034649D01*
X0139948Y0033681D01*
X0133016Y0033681D01*
X0133105Y0033118D01*
X0133322Y0032449D01*
X0133642Y0031823D01*
X0134055Y0031254D01*
X0134552Y0030756D01*
X0135121Y0030343D01*
X0135748Y0030024D01*
X0136417Y0029806D01*
X0136792Y0029747D01*
X0123478Y0029814D01*
X0122766Y0030527D01*
X0122766Y0031482D01*
X0122357Y0032469D01*
X0121602Y0033224D01*
X0120616Y0033633D01*
X0119548Y0033633D01*
X0118561Y0033224D01*
X0117806Y0032469D01*
X0117397Y0031482D01*
X0117397Y0030414D01*
X0117634Y0029844D01*
X0109491Y0029885D01*
X0109445Y0032277D01*
X0110226Y0032383D02*
X0117770Y0032383D01*
X0117397Y0031384D02*
X0109462Y0031384D01*
X0109481Y0030386D02*
X0117409Y0030386D01*
X0120082Y0030948D02*
X0123310Y0027720D01*
X0123310Y0025082D01*
X0122907Y0030386D02*
X0135063Y0030386D01*
X0133960Y0031384D02*
X0122766Y0031384D01*
X0122393Y0032383D02*
X0133356Y0032383D01*
X0133063Y0033381D02*
X0121222Y0033381D01*
X0118941Y0033381D02*
X0111224Y0033381D01*
X0112223Y0034380D02*
X0139948Y0034380D01*
X0140916Y0034380D02*
X0150511Y0034380D01*
X0150511Y0035378D02*
X0147705Y0035378D01*
X0147759Y0035211D02*
X0147542Y0035880D01*
X0147222Y0036507D01*
X0146809Y0037076D01*
X0146312Y0037573D01*
X0145742Y0037987D01*
X0145116Y0038306D01*
X0144447Y0038523D01*
X0143752Y0038633D01*
X0140916Y0038633D01*
X0140916Y0034649D01*
X0147848Y0034649D01*
X0147759Y0035211D01*
X0147289Y0036377D02*
X0150511Y0036377D01*
X0150511Y0037375D02*
X0146510Y0037375D01*
X0144907Y0038374D02*
X0150511Y0038374D01*
X0150511Y0039372D02*
X0131593Y0039372D01*
X0132283Y0040371D02*
X0138886Y0040371D01*
X0139196Y0040270D02*
X0138552Y0040479D01*
X0137949Y0040786D01*
X0137402Y0041184D01*
X0136923Y0041663D01*
X0136525Y0042210D01*
X0136218Y0042813D01*
X0136009Y0043457D01*
X0135913Y0044064D01*
X0142603Y0044064D01*
X0143403Y0044064D01*
X0143403Y0044864D01*
X0150093Y0044864D01*
X0149997Y0045471D01*
X0149788Y0046115D01*
X0149481Y0046718D01*
X0149083Y0047265D01*
X0148604Y0047744D01*
X0148057Y0048142D01*
X0147453Y0048449D01*
X0146810Y0048658D01*
X0146141Y0048764D01*
X0143403Y0048764D01*
X0143403Y0044864D01*
X0142603Y0044864D01*
X0142603Y0048764D01*
X0139864Y0048764D01*
X0139196Y0048658D01*
X0138552Y0048449D01*
X0137949Y0048142D01*
X0137402Y0047744D01*
X0136923Y0047265D01*
X0136525Y0046718D01*
X0136218Y0046115D01*
X0136009Y0045471D01*
X0135913Y0044864D01*
X0142603Y0044864D01*
X0142603Y0044064D01*
X0142603Y0040164D01*
X0139864Y0040164D01*
X0139196Y0040270D01*
X0139948Y0038374D02*
X0140916Y0038374D01*
X0140916Y0037375D02*
X0139948Y0037375D01*
X0139948Y0036377D02*
X0140916Y0036377D01*
X0140916Y0035378D02*
X0139948Y0035378D01*
X0135957Y0038374D02*
X0130065Y0038374D01*
X0127452Y0038374D02*
X0124966Y0038374D01*
X0123967Y0037375D02*
X0134354Y0037375D01*
X0133575Y0036377D02*
X0122969Y0036377D01*
X0113221Y0035378D02*
X0133159Y0035378D01*
X0132659Y0041369D02*
X0137217Y0041369D01*
X0136445Y0042368D02*
X0132659Y0042368D01*
X0133054Y0043366D02*
X0136038Y0043366D01*
X0135992Y0045363D02*
X0132966Y0045363D01*
X0133010Y0044365D02*
X0142603Y0044365D01*
X0143403Y0044365D02*
X0150511Y0044365D01*
X0150093Y0044064D02*
X0149997Y0043457D01*
X0149788Y0042813D01*
X0149481Y0042210D01*
X0149083Y0041663D01*
X0148604Y0041184D01*
X0148057Y0040786D01*
X0147453Y0040479D01*
X0146810Y0040270D01*
X0146141Y0040164D01*
X0143403Y0040164D01*
X0143403Y0044064D01*
X0150093Y0044064D01*
X0149967Y0043366D02*
X0150511Y0043366D01*
X0150511Y0042368D02*
X0149561Y0042368D01*
X0148789Y0041369D02*
X0150511Y0041369D01*
X0150511Y0040371D02*
X0147120Y0040371D01*
X0143403Y0040371D02*
X0142603Y0040371D01*
X0142603Y0041369D02*
X0143403Y0041369D01*
X0143403Y0042368D02*
X0142603Y0042368D01*
X0142603Y0043366D02*
X0143403Y0043366D01*
X0143403Y0045363D02*
X0142603Y0045363D01*
X0142603Y0046362D02*
X0143403Y0046362D01*
X0143403Y0047360D02*
X0142603Y0047360D01*
X0142603Y0048359D02*
X0143403Y0048359D01*
X0147630Y0048359D02*
X0150511Y0048359D01*
X0150511Y0049357D02*
X0132789Y0049357D01*
X0132833Y0048359D02*
X0138375Y0048359D01*
X0137018Y0047360D02*
X0132877Y0047360D01*
X0132921Y0046362D02*
X0136344Y0046362D01*
X0133059Y0050356D02*
X0150511Y0050356D01*
X0150511Y0047360D02*
X0148988Y0047360D01*
X0149662Y0046362D02*
X0150511Y0046362D01*
X0150511Y0045363D02*
X0150014Y0045363D01*
X0150511Y0033381D02*
X0147801Y0033381D01*
X0147508Y0032383D02*
X0150511Y0032383D01*
X0150045Y0031384D02*
X0146904Y0031384D01*
X0145801Y0030386D02*
X0149046Y0030386D01*
X0107148Y0031384D02*
X0091357Y0031384D01*
X0090427Y0033381D02*
X0086573Y0033381D01*
X0086192Y0034380D02*
X0091491Y0034380D01*
X0093188Y0041369D02*
X0104052Y0041369D01*
X0074999Y0041362D02*
X0070290Y0041047D01*
X0070267Y0041307D01*
X0070101Y0041236D01*
X0073834Y0035677D02*
X0074999Y0036244D01*
X0074105Y0035405D01*
X0061818Y0041984D02*
X0061775Y0041940D01*
X0050672Y0037858D02*
X0050456Y0038074D01*
X0055377Y0031539D02*
X0052506Y0028667D01*
X0048839Y0028667D01*
X0055377Y0031539D02*
X0055790Y0031539D01*
X0046302Y0045279D02*
X0048076Y0047053D01*
X0058196Y0063484D02*
X0061381Y0063484D01*
X0061381Y0065452D02*
X0058786Y0065452D01*
X0058033Y0066205D01*
X0058033Y0068373D01*
X0059049Y0069389D01*
X0059593Y0069389D02*
X0061381Y0069389D01*
X0059593Y0069389D02*
X0057837Y0071145D01*
X0057837Y0073215D01*
X0055222Y0075830D01*
X0053389Y0075830D01*
X0051460Y0077759D01*
X0045003Y0077759D01*
X0061381Y0071358D02*
X0067680Y0071358D01*
X0070633Y0068405D01*
X0071617Y0069389D01*
X0079885Y0069389D01*
X0083217Y0069389D01*
X0084033Y0070205D01*
X0084033Y0076305D01*
X0086633Y0078905D01*
X0086633Y0080905D01*
X0087133Y0081405D01*
X0090337Y0081405D01*
X0092116Y0079625D01*
X0082928Y0083535D02*
X0081786Y0083535D01*
X0077523Y0079271D01*
X0077523Y0077657D01*
X0073586Y0077657D02*
X0073586Y0082641D01*
X0076971Y0086027D01*
X0076971Y0087444D01*
X0072633Y0087405D02*
X0072633Y0084905D01*
X0071633Y0083905D01*
X0071633Y0077673D01*
X0071617Y0077657D01*
X0070633Y0068405D02*
X0069649Y0067421D01*
X0061381Y0067421D01*
X0079885Y0067421D02*
X0083149Y0067421D01*
X0090066Y0087212D02*
X0089873Y0087405D01*
X0096759Y0087212D02*
X0110099Y0087212D01*
X0121363Y0075948D01*
X0130515Y0076021D02*
X0130665Y0075870D01*
X0130515Y0076021D02*
X0130515Y0081736D01*
D33*
X0121538Y0075948D02*
X0126656Y0070830D01*
X0134767Y0070830D01*
X0135869Y0069728D01*
X0135869Y0069381D01*
X0138196Y0071708D01*
X0135869Y0069381D02*
X0135869Y0063807D01*
X0131503Y0059440D01*
X0131058Y0059885D01*
X0128507Y0059885D01*
X0125121Y0056499D01*
X0110633Y0056499D01*
X0108365Y0054232D01*
X0102633Y0058905D02*
X0123487Y0058905D01*
X0131503Y0066921D01*
X0131503Y0059440D02*
X0131511Y0059440D01*
X0121538Y0075948D02*
X0121363Y0075948D01*
X0102633Y0058905D02*
X0101133Y0057405D01*
X0082928Y0051877D02*
X0082365Y0051314D01*
X0078786Y0051314D01*
X0061381Y0061515D02*
X0057180Y0061515D01*
X0059049Y0069389D02*
X0061381Y0069389D01*
D34*
X0082928Y0051877D02*
X0084215Y0050590D01*
X0084215Y0045712D01*
X0087956Y0045712D02*
X0099326Y0045712D01*
X0099633Y0045405D01*
X0087956Y0045712D02*
X0087956Y0041893D01*
X0087129Y0041066D01*
X0081302Y0041066D01*
X0080475Y0041893D01*
X0080475Y0045712D01*
X0083389Y0051417D02*
X0082928Y0051877D01*
X0083586Y0051877D01*
X0087956Y0051787D02*
X0088046Y0051877D01*
X0088271Y0051653D01*
X0087956Y0051787D02*
X0087956Y0045712D01*
X0101818Y0028590D02*
X0107404Y0034177D01*
X0109333Y0034177D01*
X0112679Y0037523D01*
X0121428Y0037523D01*
X0128759Y0044854D01*
X0140164Y0057303D02*
X0143003Y0054464D01*
X0140164Y0057303D02*
X0140164Y0063181D01*
X0145626Y0068642D01*
X0145626Y0075870D01*
X0114318Y0034539D02*
X0112806Y0034539D01*
X0114318Y0034539D02*
X0109255Y0029476D01*
X0109255Y0022877D01*
X0106263Y0019885D01*
X0042956Y0019885D01*
X0040751Y0022090D01*
X0040751Y0027247D01*
X0099404Y0027681D02*
X0099558Y0028669D01*
X0101818Y0028590D01*
D35*
X0035666Y0038126D03*
X0033546Y0035200D03*
X0037838Y0085358D03*
M02*
