%
M48
M72
T01C0.01378
T02C0.01969
T03C0.02362
T04C0.03600
T05C0.03937
T06C0.04000
T07C0.04331
T08C0.05118
%
T01
X33546Y35200
X35666Y38126
X37838Y85358
T02
X41420Y81342
X51420Y82090
X55790Y82051
X72633Y87405
X76971Y87444
X82928Y83535
X87133Y81405
X101133Y57405
X99633Y45405
X114318Y34539
X120082Y30948
X115400Y20527
X83987Y32610
X61818Y41984
X46302Y45279
X40046Y49543
X37641Y45436
X74633Y53905
X78786Y51314
X130515Y81736
X138196Y71708
T03
X110652Y19767
X125023Y19767
T04
X108759Y44854
X118759Y44854
X128759Y44854
X143003Y44464
X143003Y54464
T05
X40751Y27247
X60436Y27247
X140432Y24165
X140432Y34165
T06
X101363Y75948
X111363Y75948
X121363Y75948
X121363Y65948
X111363Y65948
X101363Y65948
T07
X137433Y87747
T08
X137433Y77905
M30
